<?xml version="1.0" encoding="UTF-8"?> <!-- Generator: Adobe Illustrator 27.3.1, SVG Export Plug-In . SVG Version: 6.00 Build 0) --> <svg xmlns="http://www.w3.org/2000/svg" xmlns:xlink="http://www.w3.org/1999/xlink" version="1.1" id="Capa_1" x="0px" y="0px" viewBox="0 0 24 24" style="enable-background:new 0 0 24 24;" xml:space="preserve"> <style type="text/css"> .st0{fill:#FFFFFF;} </style> <path class="st0" d="M18.1,18.6L18.1,18.6L18.1,18.6C18.1,18.6,18.1,18.6,18.1,18.6z M4.1,18.4c-0.6-1.2-1-2.4-1-3.8 c0-2,0.7-3.8,1.8-5.3V8.1C3.3,9.8,2.3,12,2.3,14.6c0,1.7,0.4,3.1,1.2,4.4C3.6,18.8,3.9,18.6,4.1,18.4z M11.5,12.4l-2.3,5.4 c-0.1,0.1,0.1,0.2,0.2,0.2c0.6-0.5,1.6-1.2,2.4-1.3c0.8-0.1,1.5,0.1,1.9,0.2c0.1,0,0.2-0.1,0.1-0.2l-2.1-4.3 C11.7,12.3,11.5,12.3,11.5,12.4z M11.5,6c-0.9,0-1.8,0.2-2.7,0.4V5.6c0.8-0.3,1.7-0.4,2.7-0.4c1.1,0,2.1,0.2,3.1,0.5 c0.3-0.8,1-1.4,1.9-1.4c1,0,1.8,0.7,2,1.7c0,0,0,0,0,0c0,0.1,0,0.2,0,0.3c0,0.1,0,0.1,0,0.1l0,0.6c0,0.3-0.2,0.6-0.5,0.9 c1.6,1.7,2.6,3.9,2.6,6.5c0,1.4-0.4,2.7-1,3.9c-0.1-0.3-0.2-0.6-0.4-0.8c0.4-1,0.6-1.9,0.6-3.1c0-1.7-0.5-3.2-1.3-4.5v1 c0,0.5-0.5,0.9-1.1,1.4c0.6,0.4,1.1,0.9,1.1,1.3v0.3c0-0.1,0-0.1,0-0.2v1.1c0,0.5-0.5,0.9-1.1,1.4c0.6,0.4,1.1,0.9,1.1,1.3l0,1.5 c0-0.6-0.7-1.2-1.5-1.8l0,1.2c-0.3-0.1-0.7-0.3-1-0.5l0-0.9c-0.2,0.1-0.4,0.3-0.6,0.4c-0.3-0.1-0.6-0.2-0.8-0.3 c0.2-0.3,0.6-0.7,1.1-1c-0.7-0.5-1.2-1-1.2-1.5v-1.1c0,0.1,0,0.1,0,0.2v-0.2c0-0.5,0.5-1,1.2-1.4c-0.6-0.4-1.1-0.9-1.2-1.3 c0,0,0,0.1,0,0.1v-0.2V9.9c0,0,0,0,0,0V9.7c0,0,0,0.1,0,0.1c0.1-0.5,0.6-0.9,1.3-1.4C15.2,8,14.6,7.5,14.6,7V6.9 c0-0.1-0.1-0.2-0.1-0.4C13.6,6.2,12.6,6,11.5,6z M14.6,6.8C14.6,6.8,14.6,6.8,14.6,6.8C14.6,6.8,14.6,6.8,14.6,6.8 C14.6,6.8,14.6,6.8,14.6,6.8C14.6,6.8,14.6,6.8,14.6,6.8z M14.7,6.9C14.7,6.9,14.7,6.9,14.7,6.9C14.7,6.9,14.7,6.9,14.7,6.9 C14.7,6.9,14.7,6.9,14.7,6.9C14.7,6.9,14.7,6.9,14.7,6.9z M14.7,7C14.7,7,14.7,7,14.7,7C14.7,7,14.7,7,14.7,7C14.7,7,14.7,7,14.7,7 C14.7,7,14.7,7,14.7,7z M14.7,6.6C14.7,6.6,14.7,6.5,14.7,6.6C14.7,6.5,14.7,6.6,14.7,6.6C14.7,6.6,14.7,6.6,14.7,6.6 C14.7,6.6,14.7,6.6,14.7,6.6z M14.7,7C14.7,7,14.7,7,14.7,7C14.7,7,14.7,7,14.7,7C14.7,7,14.7,7,14.7,7C14.7,7,14.7,7,14.7,7z M14.7,7.1C14.7,7.1,14.7,7.1,14.7,7.1C14.7,7.1,14.7,7.1,14.7,7.1C14.7,7.1,14.7,7.1,14.7,7.1C14.7,7.1,14.7,7.1,14.7,7.1z M14.7,6.8C14.7,6.8,14.7,6.8,14.7,6.8C14.7,6.8,14.7,6.8,14.7,6.8C14.7,6.9,14.7,6.9,14.7,6.8C14.7,6.9,14.7,6.9,14.7,6.8z M14.8,6.6C14.8,6.6,14.8,6.6,14.8,6.6C14.8,6.6,14.8,6.6,14.8,6.6C14.8,6.6,14.8,6.6,14.8,6.6C14.8,6.6,14.8,6.6,14.8,6.6z M14.8,7.1C14.8,7.1,14.8,7.1,14.8,7.1C14.8,7.1,14.8,7.1,14.8,7.1C14.8,7.1,14.8,7.1,14.8,7.1C14.8,7.1,14.8,7.1,14.8,7.1z M14.8,7.2C14.8,7.2,14.8,7.2,14.8,7.2C14.8,7.2,14.8,7.2,14.8,7.2C14.8,7.2,14.8,7.2,14.8,7.2C14.8,7.2,14.8,7.2,14.8,7.2z M14.8,6.9C14.8,6.9,14.8,6.9,14.8,6.9C14.8,6.9,14.8,6.9,14.8,6.9C14.8,6.9,14.8,6.9,14.8,6.9C14.8,6.9,14.8,6.9,14.8,6.9z M14.9,6.6C14.9,6.6,14.9,6.6,14.9,6.6C14.9,6.6,14.9,6.6,14.9,6.6C14.9,6.6,14.8,6.6,14.9,6.6C14.8,6.6,14.9,6.6,14.9,6.6z M14.9,6.3C14.9,6.3,14.9,6.3,14.9,6.3C14.9,6.2,14.9,6.2,14.9,6.3C14.8,6.2,14.8,6.2,14.9,6.3C14.8,6.3,14.8,6.3,14.9,6.3z M14.9,7.3C14.9,7.3,14.9,7.3,14.9,7.3C14.9,7.3,14.9,7.3,14.9,7.3C14.9,7.3,14.9,7.3,14.9,7.3C14.9,7.3,14.9,7.3,14.9,7.3z M14.9,7.2C14.9,7.1,14.9,7.1,14.9,7.2C14.9,7.1,14.9,7.1,14.9,7.2C14.9,7.2,14.9,7.2,14.9,7.2C14.9,7.2,14.9,7.2,14.9,7.2z M14.9,7.4C14.9,7.4,14.9,7.4,14.9,7.4C14.9,7.4,14.9,7.4,14.9,7.4C14.9,7.4,14.9,7.4,14.9,7.4C14.9,7.4,14.9,7.4,14.9,7.4z M14.9,7 C14.9,7,14.9,7,14.9,7C14.9,7,14.9,7,14.9,7C14.9,7,14.9,7,14.9,7C14.9,7,14.9,7,14.9,7z M14.9,6.9C14.9,6.9,14.9,6.9,14.9,6.9 C14.9,6.9,14.9,6.9,14.9,6.9C14.9,6.9,14.9,6.9,14.9,6.9C14.9,6.9,14.9,6.9,14.9,6.9z M14.9,6.7C14.9,6.7,14.9,6.7,14.9,6.7 C14.9,6.7,14.9,6.7,14.9,6.7C14.9,6.8,14.9,6.8,14.9,6.7C14.9,6.8,14.9,6.8,14.9,6.7z M15,6.2C15,6.2,15,6.2,15,6.2 C14.9,6.2,14.9,6.2,15,6.2C14.9,6.3,14.9,6.3,15,6.2C15,6.3,15,6.3,15,6.2z M15,6.6C15,6.6,15,6.6,15,6.6C14.9,6.6,14.9,6.6,15,6.6 C14.9,6.6,14.9,6.6,15,6.6C15,6.6,15,6.6,15,6.6C15,6.6,15,6.6,15,6.6C15,6.6,15,6.6,15,6.6z M14.9,7.3C14.9,7.3,14.9,7.3,14.9,7.3 C14.9,7.3,15,7.3,14.9,7.3C15,7.3,14.9,7.3,14.9,7.3C14.9,7.3,14.9,7.3,14.9,7.3z M15,7.4C15,7.4,15,7.4,15,7.4 C14.9,7.4,14.9,7.4,15,7.4C14.9,7.4,14.9,7.4,15,7.4C15,7.4,15,7.4,15,7.4z M15,7.2C15,7.2,15,7.2,15,7.2C14.9,7.2,14.9,7.2,15,7.2 C14.9,7.2,14.9,7.2,15,7.2C15,7.2,15,7.2,15,7.2z M15,7.1C15,7.1,15,7,15,7.1C15,7,15,7.1,15,7.1C15,7.1,15,7.1,15,7.1 C15,7.1,15,7.1,15,7.1z M15,6.9C15,6.9,15,6.9,15,6.9C15,6.9,15,6.9,15,6.9C15,6.9,15,6.9,15,6.9C15,6.9,15,6.9,15,6.9z M15,6.4 C15,6.4,15,6.4,15,6.4C15,6.4,15,6.4,15,6.4C15,6.4,15,6.4,15,6.4C15,6.4,15,6.4,15,6.4z M15,6.1C15,6.1,15,6.1,15,6.1 C15,6.1,15,6,15,6.1C15,6,15,6.1,15,6.1C15,6.1,15,6.1,15,6.1z M15,6.8C15,6.8,15,6.8,15,6.8C15,6.8,15,6.8,15,6.8 C15,6.8,15,6.7,15,6.8C15,6.7,15,6.8,15,6.8z M15,7.5C15,7.5,15,7.5,15,7.5C15,7.5,15,7.5,15,7.5C15,7.5,15,7.5,15,7.5 C15,7.5,15,7.5,15,7.5z M15,7.4C15,7.4,15,7.4,15,7.4C15,7.4,15,7.4,15,7.4C15,7.4,15,7.5,15,7.4C15,7.5,15,7.4,15,7.4z M15,7.3 C15,7.3,15,7.3,15,7.3C15,7.3,15,7.3,15,7.3C15,7.3,15,7.3,15,7.3C15,7.3,15,7.3,15,7.3z M15.1,7.2C15.1,7.2,15.1,7.2,15.1,7.2 C15,7.2,15,7.2,15.1,7.2C15,7.2,15,7.2,15.1,7.2C15.1,7.2,15.1,7.2,15.1,7.2z M15.1,6.6C15.1,6.6,15.1,6.6,15.1,6.6 C15.1,6.6,15.1,6.6,15.1,6.6C15.1,6.6,15,6.6,15.1,6.6C15,6.6,15.1,6.6,15.1,6.6z M15.1,7.1C15.1,7.1,15.1,7.1,15.1,7.1 C15.1,7.1,15.1,7.1,15.1,7.1C15.1,7.1,15.1,7.1,15.1,7.1C15.1,7.1,15.1,7.1,15.1,7.1z M15.1,7C15.1,7,15.1,7,15.1,7 C15.1,6.9,15.1,6.9,15.1,7C15.1,6.9,15.1,6.9,15.1,7C15.1,7,15.1,7,15.1,7z M15.5,5.8C15.5,5.9,15.5,5.9,15.5,5.8 C15.5,5.9,15.5,5.9,15.5,5.8C15.5,5.8,15.5,5.8,15.5,5.8C15.5,5.8,15.5,5.8,15.5,5.8z M15.5,5.3C15.5,5.3,15.5,5.3,15.5,5.3 C15.5,5.3,15.5,5.3,15.5,5.3C15.5,5.3,15.5,5.3,15.5,5.3C15.5,5.3,15.5,5.3,15.5,5.3z M16.8,5.6C16.8,5.6,16.8,5.6,16.8,5.6 C16.8,5.6,16.9,5.6,16.8,5.6C16.9,5.6,16.8,5.5,16.8,5.6C16.8,5.5,16.8,5.6,16.8,5.6z M16.8,5.3C16.8,5.3,16.8,5.3,16.8,5.3 C16.8,5.2,16.8,5.2,16.8,5.3C16.8,5.2,16.8,5.2,16.8,5.3C16.8,5.3,16.8,5.3,16.8,5.3z M16.8,6C16.8,6,16.8,6,16.8,6 c0.1,0.1,0.1,0,0.1,0S16.9,5.9,16.8,6C16.8,5.9,16.8,6,16.8,6z M18.2,6.6C18.2,6.6,18.2,6.6,18.2,6.6C18.2,6.6,18.2,6.6,18.2,6.6 C18.2,6.6,18.2,6.6,18.2,6.6C18.2,6.6,18.2,6.6,18.2,6.6z M18.2,6.3C18.2,6.3,18.2,6.3,18.2,6.3C18.2,6.2,18.2,6.2,18.2,6.3 C18.2,6.2,18.2,6.2,18.2,6.3C18.2,6.3,18.2,6.3,18.2,6.3z M18.2,6.4C18.2,6.4,18.2,6.4,18.2,6.4C18.1,6.4,18.1,6.4,18.2,6.4 C18.1,6.4,18.1,6.4,18.2,6.4C18.2,6.4,18.2,6.4,18.2,6.4z M18.1,7.4C18.1,7.4,18.1,7.4,18.1,7.4C18.1,7.4,18.1,7.4,18.1,7.4 C18.1,7.4,18.1,7.4,18.1,7.4C18.1,7.4,18.1,7.4,18.1,7.4z M18.1,7.5C18.1,7.5,18.1,7.5,18.1,7.5C18.1,7.5,18.1,7.5,18.1,7.5 C18.1,7.5,18.1,7.5,18.1,7.5C18.1,7.5,18.1,7.5,18.1,7.5z M18.1,7.3C18.1,7.3,18.1,7.3,18.1,7.3C18.1,7.3,18.1,7.3,18.1,7.3 C18.1,7.3,18.1,7.3,18.1,7.3C18.1,7.3,18.1,7.3,18.1,7.3z M18.1,7.1C18.1,7.1,18.1,7.1,18.1,7.1C18.1,7.1,18.1,7.1,18.1,7.1 C18.1,7.1,18.1,7.1,18.1,7.1C18.1,7.1,18.1,7.1,18.1,7.1z M18.1,7.6C18.1,7.6,18.1,7.6,18.1,7.6C18.1,7.6,18.1,7.7,18.1,7.6 C18.1,7.7,18.1,7.6,18.1,7.6C18.1,7.6,18.1,7.6,18.1,7.6z M18,7.7C18,7.7,18,7.7,18,7.7C17.9,7.7,17.9,7.7,18,7.7 C17.9,7.7,17.9,7.7,18,7.7C18,7.7,18,7.7,18,7.7z M17.9,7.8C17.9,7.8,17.9,7.8,17.9,7.8C17.9,7.8,17.9,7.8,17.9,7.8 C18,7.8,18,7.8,17.9,7.8C18,7.8,18,7.8,17.9,7.8z M18,7.6C18,7.6,18,7.6,18,7.6C17.9,7.6,17.9,7.6,18,7.6C17.9,7.6,17.9,7.6,18,7.6 C18,7.6,18,7.6,18,7.6z M17.9,7.8C17.9,7.8,17.9,7.8,17.9,7.8C17.9,7.8,17.8,7.8,17.9,7.8C17.8,7.8,17.9,7.8,17.9,7.8 C17.9,7.8,17.9,7.8,17.9,7.8z M17.9,7.9C17.8,7.9,17.8,7.9,17.9,7.9C17.8,7.9,17.8,7.9,17.9,7.9C17.9,7.9,17.9,7.9,17.9,7.9 C17.9,7.9,17.9,7.9,17.9,7.9z M17.5,7.7C17.6,7.7,17.6,7.6,17.5,7.7C17.6,7.6,17.6,7.6,17.5,7.7C17.5,7.6,17.5,7.6,17.5,7.7 C17.5,7.6,17.5,7.7,17.5,7.7z M17.5,8C17.5,8,17.5,8,17.5,8C17.5,8,17.5,8,17.5,8C17.5,8,17.5,8,17.5,8C17.5,8,17.5,8,17.5,8z M17.5,7.8C17.5,7.8,17.5,7.7,17.5,7.8C17.4,7.7,17.4,7.8,17.5,7.8C17.4,7.8,17.4,7.8,17.5,7.8C17.5,7.8,17.5,7.8,17.5,7.8z M17.5,8.1C17.4,8.1,17.4,8.1,17.5,8.1C17.4,8.1,17.4,8.1,17.5,8.1C17.5,8.1,17.5,8.1,17.5,8.1C17.5,8.1,17.5,8.1,17.5,8.1z M17.4,8.1C17.4,8.1,17.4,8.1,17.4,8.1C17.4,8.1,17.4,8.1,17.4,8.1C17.4,8.1,17.4,8.1,17.4,8.1C17.4,8.1,17.4,8.1,17.4,8.1z M17.4,7.9C17.4,7.9,17.3,7.9,17.4,7.9C17.3,7.9,17.3,7.9,17.4,7.9C17.3,7.9,17.3,7.9,17.4,7.9C17.3,7.9,17.4,7.9,17.4,7.9z M17.3,8.2C17.3,8.2,17.3,8.2,17.3,8.2C17.3,8.2,17.3,8.2,17.3,8.2C17.3,8.2,17.3,8.2,17.3,8.2C17.3,8.2,17.3,8.2,17.3,8.2z M17.3,7.8C17.3,7.8,17.3,7.8,17.3,7.8C17.3,7.8,17.3,7.8,17.3,7.8C17.3,7.8,17.3,7.8,17.3,7.8C17.3,7.8,17.3,7.8,17.3,7.8z M17.3,8.1C17.3,8.1,17.3,8.1,17.3,8.1C17.3,8.1,17.3,8.1,17.3,8.1C17.3,8.1,17.3,8.1,17.3,8.1C17.3,8.1,17.3,8.1,17.3,8.1z M17.2,8 C17.2,8,17.2,8,17.2,8C17.2,8,17.2,8,17.2,8C17.2,8,17.2,8,17.2,8C17.2,8,17.2,8,17.2,8z M17.2,8.2C17.2,8.2,17.2,8.2,17.2,8.2 C17.2,8.2,17.2,8.2,17.2,8.2C17.2,8.2,17.2,8.2,17.2,8.2C17.2,8.2,17.2,8.2,17.2,8.2z M17.2,8.2C17.2,8.2,17.2,8.2,17.2,8.2 C17.2,8.2,17.2,8.2,17.2,8.2C17.2,8.2,17.2,8.2,17.2,8.2C17.2,8.2,17.2,8.2,17.2,8.2z M17.3,7.7C17.3,7.7,17.2,7.6,17.3,7.7 C17.2,7.6,17.2,7.7,17.3,7.7C17.2,7.7,17.2,7.7,17.3,7.7C17.2,7.7,17.3,7.7,17.3,7.7z M17.2,7.9C17.2,7.9,17.2,7.9,17.2,7.9 C17.2,7.9,17.2,7.9,17.2,7.9C17.2,7.9,17.2,7.9,17.2,7.9C17.2,7.9,17.2,7.9,17.2,7.9z M17.2,8.1C17.2,8.1,17.2,8.2,17.2,8.1 C17.2,8.2,17.2,8.2,17.2,8.1C17.2,8.2,17.2,8.2,17.2,8.1C17.2,8.2,17.2,8.1,17.2,8.1z M17.1,7.8C17.1,7.8,17.1,7.8,17.1,7.8 C17.1,7.8,17.1,7.8,17.1,7.8C17.1,7.8,17.1,7.8,17.1,7.8C17.1,7.8,17.1,7.8,17.1,7.8C17.1,7.8,17.1,7.8,17.1,7.8 C17.1,7.8,17.1,7.8,17.1,7.8z M17.1,8.1C17.1,8.1,17.1,8.1,17.1,8.1C17.1,8.1,17.1,8.1,17.1,8.1L17.1,8.1 C17.1,8.1,17.1,8.1,17.1,8.1C17.1,8.1,17.1,8.1,17.1,8.1C17.1,8.1,17.1,8.1,17.1,8.1C17.1,8.1,17.1,8.1,17.1,8.1 C17.1,8.1,17.1,8.1,17.1,8.1C17.1,8.1,17.1,8.1,17.1,8.1C17.1,8.1,17.1,8.1,17.1,8.1z M16.8,7.6C16.8,7.6,16.8,7.5,16.8,7.6 C16.8,7.5,16.7,7.6,16.8,7.6C16.7,7.6,16.8,7.6,16.8,7.6C16.8,7.6,16.8,7.6,16.8,7.6z M16.8,7.8C16.8,7.8,16.8,7.8,16.8,7.8 C16.8,7.8,16.7,7.8,16.8,7.8C16.7,7.9,16.7,7.9,16.8,7.8C16.8,7.9,16.8,7.9,16.8,7.8C16.8,7.9,16.8,7.9,16.8,7.8 C16.8,7.9,16.8,7.9,16.8,7.8C16.8,7.9,16.8,7.9,16.8,7.8C16.8,7.8,16.8,7.8,16.8,7.8z M16.1,8.1C16.1,8.1,16.1,8.1,16.1,8.1 C16,8.1,16,8.1,16.1,8.1C16,8.1,16,8.1,16.1,8.1C16.1,8.1,16.1,8.1,16.1,8.1z M16.1,8.3C16.1,8.3,16.1,8.3,16.1,8.3 C16.1,8.3,16.1,8.3,16.1,8.3C16.1,8.3,16.1,8.3,16.1,8.3C16.1,8.3,16.1,8.3,16.1,8.3z M16,7.9C16,7.9,16,7.9,16,7.9 C16,7.9,16,7.9,16,7.9C16,7.9,16,7.9,16,7.9C16,7.9,16,7.9,16,7.9z M16,8.2C16,8.2,16,8.2,16,8.2C16,8.2,16,8.2,16,8.2 C16,8.2,16,8.2,16,8.2C16,8.2,16,8.2,16,8.2z M16,8.2C16,8.2,16,8.2,16,8.2C16,8.2,16,8.2,16,8.2C16,8.2,16,8.2,16,8.2 C16,8.2,16,8.2,16,8.2z M16,8C16,8,16,8,16,8C15.9,8,15.9,8,16,8C15.9,8,15.9,8,16,8C16,8,16,8,16,8z M16,7.7C16,7.7,16,7.7,16,7.7 C15.9,7.7,15.9,7.7,16,7.7C15.9,7.7,15.9,7.7,16,7.7C16,7.7,16,7.7,16,7.7z M15.9,7.8C15.9,7.8,15.9,7.8,15.9,7.8 C15.9,7.8,15.9,7.8,15.9,7.8C15.9,7.8,15.9,7.8,15.9,7.8C15.9,7.8,15.9,7.8,15.9,7.8z M15.9,8.1C15.9,8.1,15.9,8.1,15.9,8.1 C15.9,8.1,15.9,8.1,15.9,8.1C15.9,8.1,15.9,8.1,15.9,8.1C15.9,8.1,15.9,8.1,15.9,8.1z M16,7.4C16,7.4,15.9,7.4,16,7.4 C15.9,7.4,15.9,7.4,16,7.4C15.9,7.4,15.9,7.4,16,7.4C15.9,7.4,16,7.4,16,7.4z M15.6,7C15.6,7,15.6,7,15.6,7C15.6,7,15.5,7,15.6,7 C15.5,7,15.5,7,15.6,7C15.5,7,15.5,7,15.6,7C15.5,7,15.5,7,15.6,7C15.5,7,15.6,7,15.6,7z M15.5,7.5C15.5,7.5,15.5,7.5,15.5,7.5 C15.5,7.5,15.6,7.5,15.5,7.5C15.6,7.5,15.5,7.5,15.5,7.5C15.5,7.5,15.5,7.5,15.5,7.5z M15.3,6.8C15.3,6.8,15.3,6.8,15.3,6.8 C15.3,6.8,15.3,6.8,15.3,6.8C15.3,6.8,15.3,6.8,15.3,6.8C15.3,6.8,15.3,6.8,15.3,6.8z M15.3,6.7C15.4,6.7,15.4,6.6,15.3,6.7 C15.4,6.6,15.4,6.6,15.3,6.7C15.3,6.6,15.3,6.6,15.3,6.7C15.3,6.6,15.3,6.7,15.3,6.7z M15.3,7.1C15.3,7.2,15.3,7.2,15.3,7.1 C15.3,7.2,15.4,7.2,15.3,7.1C15.4,7.1,15.3,7.1,15.3,7.1C15.3,7.1,15.3,7.1,15.3,7.1z M15.4,7C15.4,7,15.4,7,15.4,7 C15.4,7,15.4,7,15.4,7C15.4,7,15.4,7,15.4,7C15.4,7,15.4,7,15.4,7C15.4,7,15.3,7,15.4,7C15.3,7,15.4,7,15.4,7z M15.5,6.6 C15.5,6.6,15.5,6.6,15.5,6.6C15.5,6.6,15.5,6.7,15.5,6.6C15.5,6.7,15.5,6.6,15.5,6.6C15.5,6.6,15.5,6.6,15.5,6.6z M15.6,6.5 C15.6,6.5,15.6,6.5,15.6,6.5C15.6,6.4,15.6,6.4,15.6,6.5C15.6,6.4,15.5,6.4,15.6,6.5C15.5,6.5,15.6,6.5,15.6,6.5z M15.4,6.8 C15.4,6.8,15.4,6.8,15.4,6.8C15.4,6.8,15.4,6.8,15.4,6.8C15.4,6.8,15.5,6.8,15.4,6.8C15.5,6.8,15.4,6.8,15.4,6.8z M15.4,6.4 C15.4,6.4,15.4,6.4,15.4,6.4C15.4,6.4,15.4,6.4,15.4,6.4C15.4,6.4,15.4,6.5,15.4,6.4C15.4,6.5,15.4,6.4,15.4,6.4z M15.4,7.3 C15.4,7.3,15.4,7.3,15.4,7.3C15.4,7.3,15.5,7.3,15.4,7.3C15.5,7.3,15.4,7.3,15.4,7.3C15.4,7.3,15.4,7.3,15.4,7.3z M15.5,7.2 C15.5,7.2,15.5,7.2,15.5,7.2C15.5,7.2,15.5,7.1,15.5,7.2C15.5,7.1,15.4,7.2,15.5,7.2C15.4,7.2,15.5,7.2,15.5,7.2z M15.6,6.9 C15.6,6.9,15.6,6.9,15.6,6.9C15.6,6.8,15.6,6.8,15.6,6.9C15.6,6.8,15.6,6.8,15.6,6.9C15.6,6.9,15.6,6.9,15.6,6.9z M16.9,6.2 C16.9,6.2,16.9,6.3,16.9,6.2c0.1,0.1,0.1,0,0.1,0C17,6.2,17,6.2,16.9,6.2C16.9,6.2,16.9,6.2,16.9,6.2z M17,5.8C17,5.8,17,5.7,17,5.8 c-0.1-0.1-0.1,0-0.1,0C16.9,5.8,16.9,5.8,17,5.8C17,5.8,17,5.8,17,5.8z M18.1,6.4C18.1,6.4,18.1,6.4,18.1,6.4 C18,6.4,18,6.4,18.1,6.4C18,6.4,18,6.5,18.1,6.4C18.1,6.5,18.1,6.4,18.1,6.4z M18.1,6.6C18.1,6.6,18.1,6.6,18.1,6.6 C18.1,6.6,18.1,6.6,18.1,6.6C18.1,6.6,18.1,6.6,18.1,6.6C18.1,6.6,18.1,6.6,18.1,6.6z M18,6.8C18,6.8,18,6.8,18,6.8 C18,6.8,18.1,6.8,18,6.8C18.1,6.8,18,6.7,18,6.8C18,6.7,18,6.8,18,6.8z M18,6.6C18,6.6,18,6.6,18,6.6C18,6.6,17.9,6.6,18,6.6 C17.9,6.6,18,6.6,18,6.6C18,6.6,18,6.6,18,6.6z M17.7,6.4C17.7,6.4,17.6,6.4,17.7,6.4c-0.1-0.1-0.1,0-0.1,0 C17.6,6.5,17.6,6.5,17.7,6.4C17.6,6.5,17.7,6.5,17.7,6.4z M17.6,6.6C17.6,6.6,17.7,6.7,17.6,6.6C17.7,6.7,17.7,6.6,17.6,6.6 C17.7,6.6,17.7,6.6,17.6,6.6C17.7,6.6,17.6,6.6,17.6,6.6z M17.6,6.8C17.6,6.8,17.5,6.8,17.6,6.8C17.5,6.9,17.6,6.9,17.6,6.8 C17.6,6.9,17.6,6.9,17.6,6.8C17.6,6.8,17.6,6.8,17.6,6.8z M17.5,6.6C17.5,6.6,17.5,6.6,17.5,6.6c-0.1,0.1,0,0.1,0,0.1 C17.5,6.7,17.6,6.7,17.5,6.6C17.6,6.6,17.5,6.6,17.5,6.6z M17.4,7C17.4,7,17.5,7.1,17.4,7C17.5,7.1,17.5,7,17.4,7 C17.5,7,17.5,7,17.4,7C17.5,7,17.4,7,17.4,7z M17.5,6.8C17.5,6.8,17.5,6.8,17.5,6.8c-0.1-0.1-0.1,0-0.1,0 C17.4,6.9,17.4,6.9,17.5,6.8C17.5,6.9,17.5,6.9,17.5,6.8z M17.5,6.4C17.5,6.4,17.5,6.4,17.5,6.4c-0.1-0.1-0.1,0-0.1,0 S17.4,6.5,17.5,6.4C17.5,6.5,17.5,6.5,17.5,6.4z M17.3,6.6C17.3,6.6,17.3,6.6,17.3,6.6c-0.1,0.1,0,0.1,0,0.1 C17.4,6.7,17.4,6.7,17.3,6.6C17.4,6.6,17.4,6.6,17.3,6.6z M17.2,6.8C17.2,6.8,17.2,6.8,17.2,6.8c-0.1,0.1,0,0.1,0,0.1 C17.3,6.9,17.3,6.9,17.2,6.8C17.3,6.8,17.3,6.8,17.2,6.8z M17.3,6.4C17.3,6.4,17.3,6.4,17.3,6.4c-0.1-0.1-0.1,0-0.1,0 S17.2,6.5,17.3,6.4C17.3,6.5,17.3,6.5,17.3,6.4z M17.1,6.6C17.1,6.6,17.1,6.6,17.1,6.6c-0.1,0.1,0,0.1,0,0.1 C17.2,6.7,17.2,6.7,17.1,6.6C17.2,6.6,17.2,6.6,17.1,6.6z M17.1,6.4C17.1,6.4,17.1,6.4,17.1,6.4c-0.1-0.1-0.1,0-0.1,0 S17,6.5,17.1,6.4C17.1,6.5,17.1,6.5,17.1,6.4z M16.9,6.6C16.9,6.6,16.9,6.6,16.9,6.6c-0.1,0.1,0,0.1,0,0.1S17,6.7,16.9,6.6 C17,6.6,17,6.6,16.9,6.6z M16.8,6.8C16.8,6.8,16.8,6.8,16.8,6.8C16.8,6.8,16.8,6.9,16.8,6.8c-0.1,0.1,0,0.1,0,0.1 C16.9,6.9,16.9,6.9,16.8,6.8C16.9,6.9,16.9,6.9,16.8,6.8C16.9,6.8,16.9,6.8,16.8,6.8z M16.9,7.1C16.9,7.1,16.9,7.1,16.9,7.1 c0.1,0.1,0.1,0,0.1,0C17,7,17,7,16.9,7.1C16.9,7,16.9,7,16.9,7.1z M17,6.9C17.1,6.9,17.1,6.9,17,6.9c0.1-0.1,0-0.1,0-0.1 C17,6.8,17,6.8,17,6.9C17,6.9,17,6.9,17,6.9z M17.1,7.1C17.1,7.1,17.1,7.1,17.1,7.1C17.1,7.1,17.2,7.1,17.1,7.1c0.1,0,0.1,0,0.1,0 C17.2,7,17.2,7,17.1,7.1C17.1,7,17.1,7,17.1,7.1C17.1,7,17.1,7,17.1,7.1z M17.1,7.2C17.1,7.3,17.2,7.3,17.1,7.2c0.1,0.1,0.1,0,0.1,0 C17.3,7.2,17.2,7.2,17.1,7.2C17.2,7.2,17.1,7.2,17.1,7.2z M17.2,7.4C17.2,7.4,17.2,7.4,17.2,7.4C17.3,7.4,17.3,7.4,17.2,7.4 C17.3,7.4,17.3,7.3,17.2,7.4C17.2,7.3,17.2,7.4,17.2,7.4z M17.4,7C17.4,7,17.3,7,17.4,7c-0.1-0.1-0.1,0-0.1,0S17.3,7.1,17.4,7 C17.3,7.1,17.4,7.1,17.4,7z M17.3,7.2C17.3,7.2,17.3,7.2,17.3,7.2C17.3,7.2,17.4,7.2,17.3,7.2C17.4,7.3,17.4,7.3,17.3,7.2 C17.4,7.3,17.4,7.2,17.3,7.2C17.4,7.2,17.4,7.2,17.3,7.2C17.4,7.2,17.3,7.2,17.3,7.2z M17.4,7.4C17.4,7.4,17.4,7.4,17.4,7.4 C17.5,7.4,17.5,7.4,17.4,7.4C17.5,7.4,17.5,7.3,17.4,7.4C17.5,7.3,17.5,7.3,17.4,7.4C17.5,7.3,17.5,7.3,17.4,7.4 C17.4,7.3,17.4,7.3,17.4,7.4z M17.5,7.5C17.5,7.5,17.5,7.5,17.5,7.5C17.5,7.5,17.5,7.5,17.5,7.5C17.5,7.5,17.5,7.5,17.5,7.5 C17.5,7.5,17.5,7.5,17.5,7.5z M17.6,7.2C17.6,7.2,17.6,7.2,17.6,7.2C17.6,7.2,17.6,7.1,17.6,7.2C17.5,7.1,17.5,7.2,17.6,7.2 C17.5,7.2,17.5,7.2,17.6,7.2z M17.6,7.3C17.6,7.4,17.6,7.4,17.6,7.3C17.6,7.4,17.6,7.4,17.6,7.3C17.6,7.3,17.6,7.3,17.6,7.3 C17.6,7.3,17.6,7.3,17.6,7.3C17.6,7.3,17.6,7.3,17.6,7.3C17.6,7.3,17.6,7.3,17.6,7.3z M17.7,7C17.7,7,17.7,7,17.7,7 C17.7,7,17.7,7,17.7,7C17.6,7,17.6,7,17.7,7C17.6,7,17.6,7,17.7,7z M17.7,7.2C17.7,7.2,17.7,7.2,17.7,7.2 C17.7,7.2,17.7,7.2,17.7,7.2C17.7,7.1,17.7,7.1,17.7,7.2C17.7,7.1,17.7,7.1,17.7,7.2z M17.8,6.9C17.8,6.9,17.8,6.8,17.8,6.9 C17.8,6.8,17.8,6.8,17.8,6.9C17.7,6.8,17.7,6.8,17.8,6.9C17.7,6.8,17.7,6.9,17.8,6.9z M17.8,7C17.8,7,17.8,7,17.8,7 C17.8,7,17.8,7,17.8,7C17.8,7,17.8,6.9,17.8,7C17.8,6.9,17.8,7,17.8,7z M17.8,6.7C17.9,6.7,17.9,6.6,17.8,6.7 C17.9,6.6,17.9,6.6,17.8,6.7C17.8,6.6,17.8,6.6,17.8,6.7C17.8,6.6,17.8,6.7,17.8,6.7z M17.8,7.1C17.8,7.1,17.8,7.1,17.8,7.1 C17.8,7.2,17.8,7.2,17.8,7.1C17.9,7.2,17.9,7.2,17.8,7.1C17.9,7.1,17.9,7.1,17.8,7.1C17.9,7.1,17.9,7.1,17.8,7.1 C17.8,7.1,17.8,7.1,17.8,7.1z M17.9,6.8C17.9,6.8,17.9,6.8,17.9,6.8C17.9,6.8,17.9,6.8,17.9,6.8C17.9,6.8,17.9,6.8,17.9,6.8 C17.9,6.8,17.9,6.8,17.9,6.8z M17.9,7C17.9,7,17.9,7,17.9,7C18,7,18,7,17.9,7C18,6.9,18,6.9,17.9,7C17.9,6.9,17.9,6.9,17.9,7z M18,6.4C18,6.4,17.9,6.4,18,6.4C17.9,6.4,17.9,6.4,18,6.4C17.9,6.4,17.9,6.5,18,6.4C17.9,6.5,18,6.4,18,6.4z M17.9,6.2 C17.9,6.2,17.9,6.2,17.9,6.2C17.8,6.2,17.8,6.2,17.9,6.2C17.8,6.3,17.8,6.3,17.9,6.2C17.9,6.3,17.9,6.3,17.9,6.2z M17.8,6.4 C17.7,6.4,17.7,6.4,17.8,6.4C17.7,6.5,17.7,6.5,17.8,6.4C17.8,6.5,17.8,6.5,17.8,6.4C17.8,6.4,17.8,6.4,17.8,6.4z M17.8,6 C17.8,6,17.8,6,17.8,6C17.7,6,17.7,6,17.8,6C17.7,6.1,17.7,6.1,17.8,6C17.8,6.1,17.8,6.1,17.8,6z M17.7,6.2 C17.7,6.2,17.7,6.2,17.7,6.2C17.7,6.3,17.7,6.3,17.7,6.2C17.7,6.3,17.7,6.3,17.7,6.2C17.7,6.2,17.7,6.2,17.7,6.2z M17.7,5.8 C17.7,5.8,17.7,5.8,17.7,5.8C17.7,5.8,17.6,5.8,17.7,5.8C17.6,5.9,17.7,5.9,17.7,5.8C17.7,5.9,17.7,5.9,17.7,5.8z M17.6,6 C17.6,6,17.6,6,17.6,6C17.6,6.1,17.6,6.1,17.6,6C17.6,6.1,17.7,6.1,17.6,6C17.7,6,17.6,6,17.6,6z M17.5,6.2 C17.5,6.2,17.5,6.2,17.5,6.2C17.5,6.3,17.5,6.3,17.5,6.2C17.6,6.3,17.6,6.3,17.5,6.2C17.6,6.2,17.6,6.2,17.5,6.2z M17.5,6 C17.5,6,17.5,6,17.5,6c-0.1-0.1-0.1,0-0.1,0C17.4,6,17.4,6.1,17.5,6C17.5,6.1,17.5,6,17.5,6z M17.3,6.2C17.3,6.2,17.3,6.2,17.3,6.2 c-0.1,0.1,0,0.1,0,0.1C17.4,6.3,17.4,6.3,17.3,6.2C17.4,6.2,17.4,6.2,17.3,6.2z M17.3,6C17.3,6,17.3,5.9,17.3,6 c-0.1-0.1-0.1,0-0.1,0C17.2,6,17.2,6.1,17.3,6C17.3,6.1,17.3,6,17.3,6z M17.2,6.2C17.1,6.2,17.1,6.2,17.2,6.2c-0.1,0.1,0,0.1,0,0.1 C17.2,6.3,17.2,6.2,17.2,6.2C17.2,6.2,17.2,6.2,17.2,6.2z M17.1,6C17.1,6,17.1,5.9,17.1,6C17,5.9,17,6,17,6C17,6,17,6.1,17.1,6 C17.1,6.1,17.1,6,17.1,6z M16.8,6.4C16.8,6.4,16.8,6.4,16.8,6.4c-0.1,0.1,0,0.1,0,0.1C16.9,6.5,16.9,6.5,16.8,6.4 C16.9,6.4,16.9,6.4,16.8,6.4z M16.7,6.6C16.7,6.6,16.7,6.6,16.7,6.6c-0.1,0.1,0,0.1,0,0.1C16.7,6.7,16.8,6.7,16.7,6.6 C16.8,6.6,16.7,6.6,16.7,6.6z M16.6,6.8C16.6,6.8,16.5,6.8,16.6,6.8c-0.1,0.1,0,0.1,0,0.1S16.7,6.9,16.6,6.8 C16.7,6.8,16.6,6.8,16.6,6.8z M16.7,6.4C16.7,6.4,16.6,6.4,16.7,6.4c-0.1-0.1-0.1,0-0.1,0C16.5,6.5,16.6,6.5,16.7,6.4 C16.6,6.5,16.7,6.5,16.7,6.4z M16.5,6.7C16.5,6.6,16.5,6.6,16.5,6.7C16.5,6.6,16.5,6.6,16.5,6.7c-0.1,0-0.1,0-0.1,0 C16.4,6.7,16.5,6.7,16.5,6.7C16.5,6.7,16.5,6.7,16.5,6.7C16.5,6.7,16.5,6.7,16.5,6.7z M16.4,6.8C16.3,6.8,16.3,6.8,16.4,6.8 c-0.1,0.1,0,0.1,0,0.1S16.4,6.9,16.4,6.8C16.4,6.8,16.4,6.8,16.4,6.8z M16,6.8C15.9,6.8,15.9,6.8,16,6.8c-0.1,0.1,0,0.1,0,0.1 C16,6.9,16,6.9,16,6.8C16,6.8,16,6.8,16,6.8z M16.1,6.7C16.1,6.7,16.1,6.7,16.1,6.7c0.1-0.1,0-0.1,0-0.1S16,6.6,16.1,6.7 C16,6.7,16,6.7,16.1,6.7z M15.9,7.2C15.9,7.3,16,7.3,15.9,7.2C16,7.3,16,7.3,15.9,7.2C16,7.3,16,7.2,15.9,7.2 C16,7.2,16,7.2,15.9,7.2C16,7.2,16,7.2,15.9,7.2C16,7.2,15.9,7.2,15.9,7.2z M16.1,7.1C16.1,7.1,16.1,7.1,16.1,7.1 c0.1-0.1,0-0.1,0-0.1C16,7,16,7,16.1,7.1C16,7.1,16,7.1,16.1,7.1z M16.2,6.9C16.2,6.9,16.2,6.9,16.2,6.9c0.1-0.1,0-0.1,0-0.1 C16.1,6.8,16.1,6.8,16.2,6.9C16.1,6.9,16.1,6.9,16.2,6.9z M16.3,6.7C16.3,6.7,16.3,6.7,16.3,6.7c0.1-0.1,0-0.1,0-0.1 C16.2,6.6,16.2,6.6,16.3,6.7C16.2,6.7,16.2,6.7,16.3,6.7z M16.2,7.1C16.2,7.1,16.2,7.1,16.2,7.1c0.1,0.1,0.1,0,0.1,0 C16.3,7,16.3,7,16.2,7.1C16.2,7,16.2,7,16.2,7.1z M16.4,6.4C16.4,6.4,16.4,6.4,16.4,6.4c-0.1-0.1-0.1,0-0.1,0 C16.3,6.5,16.3,6.5,16.4,6.4C16.4,6.5,16.4,6.5,16.4,6.4z M16.3,6.2C16.3,6.2,16.3,6.2,16.3,6.2c-0.1-0.1-0.1,0-0.1,0 C16.2,6.2,16.2,6.3,16.3,6.2C16.3,6.3,16.3,6.2,16.3,6.2z M16.2,6C16.2,6,16.2,5.9,16.2,6c-0.1-0.1-0.1,0-0.1,0 C16.1,6,16.1,6,16.2,6C16.2,6,16.2,6,16.2,6z M16.1,6.4C16.1,6.5,16.1,6.5,16.1,6.4c0.1,0.1,0.1,0,0.1,0c0,0,0,0,0,0 C16.2,6.4,16.2,6.4,16.1,6.4C16.1,6.4,16.1,6.4,16.1,6.4C16.1,6.4,16.1,6.4,16.1,6.4z M16.1,6.2C16.1,6.2,16.1,6.2,16.1,6.2 c-0.1-0.1-0.1,0-0.1,0C16,6.2,16,6.3,16.1,6.2C16.1,6.3,16.1,6.2,16.1,6.2z M15.9,6.4C15.9,6.4,15.9,6.4,15.9,6.4 c-0.1,0.1,0,0.1,0,0.1S16,6.5,15.9,6.4C16,6.4,16,6.4,15.9,6.4z M15.7,7C15.7,7,15.7,7,15.7,7C15.7,7.1,15.7,7.1,15.7,7 C15.7,7.1,15.7,7.1,15.7,7C15.7,7.1,15.7,7,15.7,7C15.7,7,15.7,7,15.7,7C15.7,7,15.7,7,15.7,7z M15.7,6.7 C15.7,6.7,15.7,6.7,15.7,6.7C15.7,6.6,15.7,6.6,15.7,6.7C15.6,6.6,15.6,6.6,15.7,6.7C15.6,6.7,15.6,6.7,15.7,6.7z M15.8,6.9 C15.8,6.9,15.8,6.9,15.8,6.9C15.8,6.8,15.8,6.8,15.8,6.9C15.7,6.8,15.7,6.8,15.8,6.9C15.7,6.9,15.7,6.9,15.8,6.9z M15.9,6.7 C15.9,6.7,15.9,6.7,15.9,6.7c0.1-0.1,0-0.1,0-0.1C15.8,6.6,15.8,6.6,15.9,6.7C15.8,6.7,15.8,6.7,15.9,6.7z M15.9,6.2 C15.9,6.2,15.9,6.2,15.9,6.2c-0.1-0.1-0.1,0-0.1,0C15.8,6.2,15.8,6.2,15.9,6.2C15.8,6.2,15.8,6.3,15.9,6.2 C15.9,6.3,15.9,6.3,15.9,6.2C15.9,6.3,15.9,6.2,15.9,6.2z M15.8,6.4C15.7,6.4,15.7,6.4,15.8,6.4C15.7,6.5,15.7,6.5,15.8,6.4 C15.8,6.5,15.8,6.5,15.8,6.4C15.8,6.4,15.8,6.4,15.8,6.4z M15.7,6.2C15.7,6.2,15.7,6.2,15.7,6.2C15.6,6.2,15.6,6.2,15.7,6.2 C15.6,6.2,15.6,6.3,15.7,6.2C15.7,6.3,15.7,6.2,15.7,6.2z M15.6,7.2C15.6,7.2,15.6,7.2,15.6,7.2C15.7,7.2,15.7,7.2,15.6,7.2 C15.7,7.2,15.7,7.2,15.6,7.2C15.7,7.2,15.7,7.2,15.6,7.2C15.7,7.2,15.6,7.2,15.6,7.2C15.6,7.2,15.6,7.2,15.6,7.2z M15.7,7.5 C15.7,7.5,15.7,7.5,15.7,7.5C15.7,7.5,15.7,7.5,15.7,7.5C15.7,7.5,15.7,7.5,15.7,7.5C15.7,7.5,15.7,7.5,15.7,7.5z M15.7,7.4 C15.8,7.4,15.8,7.4,15.7,7.4C15.8,7.4,15.8,7.3,15.7,7.4C15.7,7.3,15.7,7.4,15.7,7.4C15.7,7.4,15.7,7.4,15.7,7.4z M15.8,7.3 C15.8,7.3,15.8,7.2,15.8,7.3C15.8,7.2,15.8,7.2,15.8,7.3C15.8,7.2,15.8,7.2,15.8,7.3C15.8,7.2,15.8,7.3,15.8,7.3z M15.9,7.1 C15.9,7.1,15.9,7.1,15.9,7.1C15.9,7,15.9,7,15.9,7.1C15.9,7,15.8,7,15.9,7.1C15.8,7.1,15.9,7.1,15.9,7.1z M16,7.6 C16,7.6,16.1,7.6,16,7.6C16.1,7.5,16,7.5,16,7.6C16,7.5,16,7.5,16,7.6C16,7.6,16,7.6,16,7.6z M16.1,7.8C16.1,7.8,16.1,7.8,16.1,7.8 C16.1,7.8,16.1,7.8,16.1,7.8C16.1,7.8,16,7.8,16.1,7.8C16,7.8,16.1,7.8,16.1,7.8z M16.1,7.5C16.1,7.5,16.1,7.5,16.1,7.5 C16.1,7.4,16.1,7.4,16.1,7.5C16.1,7.4,16.1,7.4,16.1,7.5C16.1,7.4,16.1,7.4,16.1,7.5C16.1,7.4,16.1,7.4,16.1,7.5 C16.1,7.4,16.1,7.5,16.1,7.5z M16.1,7.7C16.1,7.7,16.1,7.7,16.1,7.7C16.1,7.7,16.1,7.7,16.1,7.7C16.2,7.7,16.2,7.7,16.1,7.7 C16.2,7.7,16.2,7.7,16.1,7.7C16.1,7.7,16.1,7.7,16.1,7.7C16.1,7.7,16.1,7.7,16.1,7.7z M16.2,7.3C16.2,7.3,16.2,7.3,16.2,7.3 C16.2,7.2,16.2,7.2,16.2,7.3C16.2,7.2,16.1,7.2,16.2,7.3C16.1,7.3,16.2,7.3,16.2,7.3z M16.2,7.6C16.2,7.6,16.2,7.6,16.2,7.6 C16.2,7.6,16.3,7.6,16.2,7.6C16.3,7.6,16.2,7.6,16.2,7.6C16.2,7.5,16.2,7.5,16.2,7.6C16.2,7.5,16.2,7.5,16.2,7.6 C16.2,7.5,16.2,7.6,16.2,7.6z M16.2,7.8C16.2,7.9,16.2,7.9,16.2,7.8C16.3,7.9,16.3,7.9,16.2,7.8C16.3,7.8,16.3,7.8,16.2,7.8 C16.2,7.8,16.2,7.8,16.2,7.8z M16.3,7.5C16.3,7.5,16.3,7.5,16.3,7.5C16.3,7.5,16.3,7.4,16.3,7.5C16.3,7.4,16.3,7.4,16.3,7.5 C16.3,7.4,16.3,7.4,16.3,7.5C16.3,7.4,16.3,7.4,16.3,7.5C16.3,7.4,16.3,7.5,16.3,7.5z M16.3,7.7C16.3,7.7,16.3,7.8,16.3,7.7 C16.3,7.8,16.4,7.7,16.3,7.7C16.4,7.7,16.3,7.7,16.3,7.7C16.3,7.7,16.3,7.7,16.3,7.7z M16.4,7.3C16.4,7.3,16.4,7.3,16.4,7.3 c0.1-0.1,0-0.1,0-0.1S16.3,7.2,16.4,7.3C16.3,7.3,16.4,7.3,16.4,7.3z M16.4,7.6C16.4,7.6,16.4,7.6,16.4,7.6 C16.4,7.6,16.4,7.6,16.4,7.6C16.4,7.6,16.4,7.5,16.4,7.6C16.4,7.5,16.4,7.6,16.4,7.6z M16.5,7.1C16.5,7.1,16.6,7.1,16.5,7.1 c0.1-0.1,0-0.1,0-0.1S16.4,7,16.5,7.1C16.4,7.1,16.5,7.1,16.5,7.1z M16.5,7.3C16.5,7.3,16.6,7.3,16.5,7.3c0.1,0.1,0.1,0,0.1,0 C16.7,7.2,16.6,7.2,16.5,7.3C16.6,7.2,16.5,7.2,16.5,7.3z M16.7,7.1C16.7,7.1,16.8,7.1,16.7,7.1c0.1-0.1,0-0.1,0-0.1 C16.7,7,16.6,7,16.7,7.1C16.6,7.1,16.7,7.1,16.7,7.1z M16.9,7.3C16.9,7.2,16.8,7.2,16.9,7.3c-0.1-0.1-0.1,0-0.1,0 C16.8,7.3,16.8,7.3,16.9,7.3C16.8,7.3,16.9,7.3,16.9,7.3z M16.9,7.4C16.9,7.4,16.9,7.4,16.9,7.4C16.9,7.4,16.8,7.4,16.9,7.4 C16.8,7.4,16.9,7.5,16.9,7.4C16.9,7.5,16.9,7.4,16.9,7.4z M16.9,7.7C16.9,7.7,16.8,7.7,16.9,7.7C16.8,7.7,16.9,7.8,16.9,7.7 C16.9,7.8,16.9,7.7,16.9,7.7C16.9,7.7,16.9,7.7,16.9,7.7z M17,7.6C17,7.5,17,7.5,17,7.6C17,7.5,16.9,7.5,17,7.6 C16.9,7.6,17,7.6,17,7.6C17,7.6,17,7.6,17,7.6z M16.9,7.8C16.9,7.8,16.9,7.8,16.9,7.8C16.9,7.9,16.9,7.9,16.9,7.8 C17,7.9,17,7.9,16.9,7.8C17,7.8,17,7.8,16.9,7.8z M17.1,7.2C17.1,7.2,17,7.2,17.1,7.2c-0.1-0.1-0.1,0-0.1,0C17,7.3,17,7.3,17.1,7.2 C17,7.3,17.1,7.3,17.1,7.2z M17,7.4C17,7.4,17.1,7.5,17,7.4C17.1,7.5,17.1,7.4,17,7.4C17.1,7.4,17.1,7.4,17,7.4 C17.1,7.4,17.1,7.4,17,7.4C17.1,7.4,17.1,7.4,17,7.4C17.1,7.4,17.1,7.4,17,7.4C17.1,7.4,17.1,7.4,17,7.4C17.1,7.4,17,7.4,17,7.4z M17.2,7.6C17.2,7.6,17.2,7.6,17.2,7.6C17.2,7.5,17.2,7.5,17.2,7.6C17.1,7.5,17.1,7.5,17.2,7.6L17.2,7.6C17.1,7.6,17.1,7.6,17.2,7.6 z M17.3,8.1C17.3,8.1,17.3,8.1,17.3,8.1C17.3,8.1,17.3,8.1,17.3,8.1C17.3,8.1,17.3,8.1,17.3,8.1C17.3,8.1,17.3,8.1,17.3,8.1z M17.4,7.5C17.4,7.5,17.4,7.5,17.4,7.5C17.3,7.5,17.3,7.5,17.4,7.5C17.3,7.5,17.3,7.5,17.4,7.5C17.3,7.5,17.3,7.5,17.4,7.5 C17.3,7.6,17.3,7.6,17.4,7.5C17.4,7.6,17.4,7.6,17.4,7.5z M17.4,7.7C17.4,7.7,17.4,7.7,17.4,7.7C17.4,7.6,17.4,7.6,17.4,7.7 C17.4,7.6,17.4,7.6,17.4,7.7C17.4,7.7,17.4,7.7,17.4,7.7z M17.4,8C17.4,8,17.4,8,17.4,8C17.4,8,17.4,8,17.4,8C17.4,8,17.4,8,17.4,8 C17.4,8,17.4,8,17.4,8z M17.4,8C17.4,8,17.4,8,17.4,8C17.4,8,17.4,8,17.4,8C17.4,8,17.4,8,17.4,8C17.4,8,17.4,8,17.4,8z M17.5,7.9 C17.5,7.9,17.5,7.9,17.5,7.9C17.5,7.9,17.5,7.9,17.5,7.9C17.5,7.8,17.5,7.8,17.5,7.9C17.5,7.8,17.5,7.8,17.5,7.9z M17.5,7.9 C17.5,7.9,17.5,8,17.5,7.9C17.5,8,17.5,7.9,17.5,7.9C17.5,7.9,17.5,7.9,17.5,7.9C17.5,7.9,17.5,7.9,17.5,7.9z M17.5,8 C17.5,8.1,17.5,8.1,17.5,8C17.6,8.1,17.6,8.1,17.5,8C17.6,8,17.6,8,17.5,8C17.5,8,17.5,8,17.5,8z M17.6,8.1 C17.6,8.1,17.6,8.1,17.6,8.1C17.6,8.1,17.6,8.1,17.6,8.1C17.6,8.1,17.6,8.1,17.6,8.1C17.6,8.1,17.6,8.1,17.6,8.1z M17.6,7.8 C17.6,7.8,17.6,7.7,17.6,7.8C17.6,7.7,17.6,7.7,17.6,7.8C17.6,7.7,17.6,7.7,17.6,7.8C17.6,7.7,17.6,7.8,17.6,7.8z M17.6,7.8 C17.6,7.8,17.6,7.8,17.6,7.8C17.6,7.8,17.6,7.8,17.6,7.8C17.6,7.8,17.6,7.8,17.6,7.8C17.6,7.8,17.6,7.8,17.6,7.8z M17.6,7.9 C17.6,7.9,17.6,7.9,17.6,7.9C17.6,7.9,17.6,7.9,17.6,7.9C17.6,7.9,17.6,7.9,17.6,7.9C17.6,7.9,17.6,7.9,17.6,7.9z M17.6,8 C17.6,8,17.6,8,17.6,8C17.7,8,17.7,8,17.6,8C17.7,8,17.7,7.9,17.6,8C17.6,7.9,17.6,8,17.6,8z M17.7,8C17.7,8,17.7,8,17.7,8 C17.7,8,17.7,8,17.7,8C17.7,8,17.7,8,17.7,8C17.7,8,17.7,8,17.7,8z M17.7,7.5C17.7,7.5,17.7,7.4,17.7,7.5 C17.6,7.4,17.6,7.5,17.7,7.5C17.6,7.5,17.6,7.5,17.7,7.5C17.6,7.5,17.6,7.5,17.7,7.5C17.7,7.5,17.7,7.5,17.7,7.5 C17.7,7.5,17.7,7.5,17.7,7.5z M17.7,7.6C17.7,7.6,17.7,7.6,17.7,7.6C17.7,7.6,17.7,7.6,17.7,7.6C17.7,7.6,17.7,7.6,17.7,7.6 C17.7,7.6,17.7,7.6,17.7,7.6z M17.7,7.7C17.7,7.7,17.7,7.7,17.7,7.7C17.7,7.7,17.7,7.7,17.7,7.7C17.7,7.7,17.7,7.7,17.7,7.7 C17.7,7.7,17.7,7.7,17.7,7.7z M17.7,7.8C17.7,7.8,17.7,7.8,17.7,7.8C17.7,7.8,17.8,7.8,17.7,7.8C17.8,7.8,17.7,7.8,17.7,7.8 C17.7,7.8,17.7,7.8,17.7,7.8z M17.7,7.9C17.7,7.9,17.7,7.9,17.7,7.9C17.8,7.9,17.8,7.9,17.7,7.9C17.8,7.8,17.8,7.8,17.7,7.9 C17.7,7.8,17.7,7.8,17.7,7.9z M17.8,7.9C17.8,7.9,17.8,7.9,17.8,7.9C17.8,7.9,17.8,7.9,17.8,7.9C17.8,7.9,17.8,7.9,17.8,7.9 C17.8,7.9,17.8,7.9,17.8,7.9z M17.8,7.9C17.8,7.9,17.8,7.9,17.8,7.9C17.8,8,17.8,8,17.8,7.9C17.8,8,17.8,8,17.8,7.9 C17.8,7.9,17.8,7.9,17.8,7.9z M17.8,7.3C17.8,7.3,17.8,7.3,17.8,7.3C17.7,7.3,17.7,7.3,17.8,7.3C17.7,7.3,17.7,7.3,17.8,7.3 C17.8,7.3,17.8,7.3,17.8,7.3z M17.8,7.4C17.8,7.5,17.8,7.5,17.8,7.4C17.8,7.5,17.8,7.5,17.8,7.4C17.8,7.4,17.8,7.4,17.8,7.4 C17.8,7.4,17.8,7.4,17.8,7.4z M17.8,7.6C17.8,7.6,17.8,7.6,17.8,7.6C17.8,7.6,17.8,7.6,17.8,7.6C17.8,7.5,17.8,7.5,17.8,7.6 C17.8,7.5,17.8,7.5,17.8,7.6z M17.8,7.7C17.8,7.7,17.8,7.7,17.8,7.7C17.8,7.7,17.8,7.7,17.8,7.7C17.8,7.7,17.9,7.7,17.8,7.7 C17.9,7.6,17.8,7.6,17.8,7.7C17.8,7.6,17.8,7.6,17.8,7.7C17.8,7.7,17.8,7.7,17.8,7.7z M17.8,7.9C17.8,7.9,17.8,7.9,17.8,7.9 C17.8,7.9,17.8,7.9,17.8,7.9C17.8,7.9,17.8,7.9,17.8,7.9C17.8,7.9,17.8,7.9,17.8,7.9z M17.9,7.7C17.9,7.7,17.9,7.7,17.9,7.7 C17.9,7.7,17.9,7.7,17.9,7.7C17.8,7.7,17.8,7.7,17.9,7.7C17.8,7.7,17.8,7.7,17.9,7.7z M17.9,7.3C17.9,7.3,17.9,7.3,17.9,7.3 C17.9,7.3,17.9,7.3,17.9,7.3C17.9,7.3,17.9,7.3,17.9,7.3C17.9,7.3,17.9,7.3,17.9,7.3z M17.9,7.4C17.9,7.4,17.9,7.4,17.9,7.4 C17.9,7.4,17.9,7.4,17.9,7.4C17.9,7.4,17.9,7.4,17.9,7.4C17.9,7.4,17.9,7.4,17.9,7.4z M17.9,7.5C17.9,7.5,17.9,7.5,17.9,7.5 C17.9,7.5,18,7.5,17.9,7.5C18,7.5,17.9,7.5,17.9,7.5C17.9,7.5,17.9,7.5,17.9,7.5z M17.9,7.8C17.9,7.8,17.9,7.8,17.9,7.8 C17.9,7.8,17.9,7.8,17.9,7.8C17.9,7.8,17.9,7.8,17.9,7.8C17.9,7.8,17.9,7.8,17.9,7.8z M18,7.1C18,7.1,18,7.1,18,7.1 C18,7.1,18,7.1,18,7.1C18,7.1,18,7.1,18,7.1C18,7.1,18,7.1,18,7.1z M18,7.2C18,7.3,18,7.3,18,7.2C18,7.3,18,7.3,18,7.2 C18,7.2,18,7.2,18,7.2C18,7.2,18,7.2,18,7.2z M18,7.4C18,7.4,18,7.4,18,7.4C18,7.4,18,7.4,18,7.4C18,7.4,18,7.3,18,7.4 C18,7.3,18,7.4,18,7.4z M18,7.7C18,7.7,18,7.7,18,7.7C18,7.7,18,7.7,18,7.7C18,7.7,18,7.7,18,7.7C18,7.7,18,7.7,18,7.7z M18,7.5 C18.1,7.5,18.1,7.5,18,7.5C18.1,7.5,18.1,7.5,18,7.5C18,7.5,18,7.5,18,7.5C18,7.5,18,7.5,18,7.5z M18.1,7.6 C18.1,7.6,18.1,7.6,18.1,7.6C18,7.6,18,7.6,18.1,7.6C18,7.6,18,7.6,18.1,7.6C18.1,7.6,18.1,7.6,18.1,7.6z M18,7.6 C18,7.6,18,7.6,18,7.6C18,7.6,18,7.6,18,7.6C18,7.6,18,7.6,18,7.6C18,7.6,18,7.6,18,7.6z M18.1,7C18.1,7,18.1,6.9,18.1,7 C18.1,6.9,18.1,6.9,18.1,7C18.1,6.9,18.1,6.9,18.1,7C18.1,6.9,18,6.9,18.1,7C18,6.9,18,6.9,18.1,7C18.1,7,18.1,7,18.1,7z M18.1,7.2 C18.1,7.2,18.1,7.2,18.1,7.2C18.1,7.2,18.1,7.2,18.1,7.2C18.1,7.2,18.1,7.2,18.1,7.2C18.1,7.2,18.1,7.2,18.1,7.2z M18.1,7.6 C18.1,7.6,18.1,7.6,18.1,7.6C18.1,7.6,18.1,7.6,18.1,7.6C18.1,7.6,18.1,7.6,18.1,7.6C18.1,7.6,18.1,7.6,18.1,7.6z M18.2,6.8 C18.2,6.7,18.2,6.7,18.2,6.8C18.1,6.7,18.1,6.7,18.2,6.8C18.1,6.8,18.1,6.8,18.2,6.8C18.2,6.8,18.2,6.8,18.2,6.8z M18.2,6.1 C18.2,6.1,18.2,6,18.2,6.1C18.1,6,18.1,6.1,18.2,6.1C18.1,6.1,18.1,6.1,18.2,6.1C18.2,6.1,18.2,6.1,18.2,6.1z M18.1,6.2 C18.1,6.2,18.1,6.2,18.1,6.2C18.1,6.3,18.1,6.3,18.1,6.2C18.1,6.3,18.1,6.3,18.1,6.2C18.1,6.2,18.1,6.2,18.1,6.2z M18.1,5.9 C18.1,5.9,18.1,5.9,18.1,5.9C18.1,5.9,18.1,5.9,18.1,5.9C18.1,5.9,18.1,5.9,18.1,5.9C18.1,5.9,18.1,5.9,18.1,5.9z M18,6 C18,6,18,6,18,6C18,6.1,18,6.1,18,6C18.1,6.1,18.1,6.1,18,6C18.1,6,18.1,6,18,6z M18,6.2C18,6.2,18,6.2,18,6.2C18,6.3,18,6.3,18,6.2 C18,6.3,18,6.3,18,6.2C18,6.2,18,6.2,18,6.2z M18,5.9C18,5.9,18,5.8,18,5.9C17.9,5.8,17.9,5.9,18,5.9C17.9,5.9,17.9,5.9,18,5.9 C18,5.9,18,5.9,18,5.9z M17.9,6C17.9,6,17.9,6,17.9,6C17.9,6.1,17.9,6.1,17.9,6C17.9,6.1,17.9,6.1,17.9,6C17.9,6,17.9,6,17.9,6z M17.9,5.7C17.9,5.7,17.9,5.7,17.9,5.7C17.9,5.7,17.8,5.7,17.9,5.7C17.8,5.7,17.9,5.7,17.9,5.7C17.9,5.7,17.9,5.7,17.9,5.7z M17.8,5.8C17.8,5.8,17.8,5.8,17.8,5.8C17.8,5.9,17.8,5.9,17.8,5.8C17.8,5.9,17.9,5.9,17.8,5.8C17.9,5.8,17.8,5.8,17.8,5.8z M17.8,5.5C17.8,5.5,17.8,5.5,17.8,5.5C17.8,5.5,17.8,5.5,17.8,5.5C17.8,5.5,17.8,5.5,17.8,5.5C17.8,5.5,17.8,5.5,17.8,5.5z M17.7,5.6C17.7,5.6,17.7,5.6,17.7,5.6C17.7,5.7,17.7,5.7,17.7,5.6C17.7,5.7,17.8,5.7,17.7,5.6C17.8,5.6,17.7,5.6,17.7,5.6z M17.7,5.3C17.7,5.3,17.7,5.3,17.7,5.3C17.7,5.3,17.7,5.3,17.7,5.3C17.7,5.3,17.7,5.4,17.7,5.3C17.7,5.4,17.7,5.3,17.7,5.3z M17.6,5.5C17.6,5.5,17.6,5.5,17.6,5.5C17.6,5.5,17.6,5.5,17.6,5.5C17.6,5.5,17.7,5.5,17.6,5.5C17.7,5.5,17.6,5.5,17.6,5.5z M17.6,5.6C17.6,5.6,17.5,5.6,17.6,5.6C17.5,5.7,17.6,5.7,17.6,5.6C17.6,5.7,17.6,5.7,17.6,5.6C17.6,5.6,17.6,5.6,17.6,5.6z M17.5,5.8C17.5,5.8,17.5,5.8,17.5,5.8C17.5,5.8,17.5,5.9,17.5,5.8C17.5,5.9,17.5,5.8,17.5,5.8C17.5,5.8,17.5,5.8,17.5,5.8z M17.5,5.5C17.5,5.4,17.5,5.4,17.5,5.5C17.4,5.4,17.4,5.4,17.5,5.5C17.4,5.5,17.4,5.5,17.5,5.5C17.5,5.5,17.5,5.5,17.5,5.5z M17.4,5.1C17.4,5.1,17.4,5.1,17.4,5.1C17.4,5.1,17.4,5.1,17.4,5.1C17.4,5.2,17.4,5.2,17.4,5.1C17.4,5.2,17.4,5.2,17.4,5.1z M17.4,5.6C17.4,5.6,17.4,5.7,17.4,5.6C17.4,5.7,17.4,5.6,17.4,5.6C17.4,5.6,17.4,5.6,17.4,5.6C17.4,5.6,17.4,5.6,17.4,5.6z M17.3,5.8C17.3,5.8,17.3,5.8,17.3,5.8C17.3,5.8,17.3,5.9,17.3,5.8C17.4,5.9,17.4,5.8,17.3,5.8C17.4,5.8,17.4,5.8,17.3,5.8z M17.3,5.4C17.3,5.4,17.3,5.4,17.3,5.4C17.3,5.4,17.3,5.4,17.3,5.4C17.3,5.5,17.3,5.5,17.3,5.4C17.3,5.5,17.3,5.5,17.3,5.4z M17.2,5.6C17.2,5.6,17.2,5.6,17.2,5.6C17.2,5.6,17.2,5.7,17.2,5.6C17.2,5.7,17.3,5.6,17.2,5.6C17.3,5.6,17.2,5.6,17.2,5.6z M17.1,5.7C17.1,5.7,17.1,5.8,17.1,5.7c-0.1,0.1,0,0.1,0,0.1C17.2,5.8,17.2,5.8,17.1,5.7C17.2,5.8,17.2,5.7,17.1,5.7z M17.1,5.4 C17.1,5.4,17.1,5.4,17.1,5.4C17.1,5.4,17.1,5.4,17.1,5.4C17.1,5.4,17.1,5.5,17.1,5.4C17.1,5.5,17.1,5.4,17.1,5.4z M17,5.5 C17,5.5,17,5.6,17,5.5C17,5.6,17,5.6,17,5.5C17,5.6,17.1,5.6,17,5.5C17.1,5.6,17,5.5,17,5.5z M17,5.2C17,5.2,17,5.2,17,5.2 C17,5.2,17,5.2,17,5.2C17,5.3,17,5.3,17,5.2C17,5.3,17,5.3,17,5.2z M17,5C17,4.9,17,4.9,17,5C16.9,4.9,16.9,4.9,17,5 C16.9,5,16.9,5,17,5C17,5,17,5,17,5z M16.9,5.4C16.9,5.4,16.9,5.4,16.9,5.4C16.9,5.4,16.9,5.4,16.9,5.4C16.9,5.4,16.9,5.4,16.9,5.4 C16.9,5.4,16.9,5.4,16.9,5.4z M16.7,6.2C16.7,6.2,16.7,6.2,16.7,6.2c-0.1,0.1,0,0.1,0,0.1C16.8,6.3,16.8,6.2,16.7,6.2 C16.8,6.2,16.8,6.2,16.7,6.2z M16.7,6C16.7,6,16.6,5.9,16.7,6c-0.1-0.1-0.1,0-0.1,0C16.5,6,16.6,6,16.7,6C16.6,6,16.7,6,16.7,6z M16.5,6.2C16.5,6.2,16.4,6.2,16.5,6.2c-0.1,0.1,0,0.1,0,0.1C16.5,6.3,16.5,6.2,16.5,6.2C16.5,6.2,16.5,6.2,16.5,6.2z M16.3,5.6 C16.3,5.6,16.4,5.6,16.3,5.6C16.4,5.6,16.4,5.6,16.3,5.6C16.4,5.6,16.4,5.5,16.3,5.6C16.4,5.5,16.3,5.6,16.3,5.6z M16.4,5.3 C16.4,5.3,16.4,5.2,16.4,5.3C16.4,5.2,16.4,5.2,16.4,5.3C16.4,5.2,16.4,5.2,16.4,5.3C16.4,5.2,16.4,5.3,16.4,5.3z M16.3,6 C16.3,6,16.3,6,16.3,6c0.1,0.1,0.1,0,0.1,0C16.4,6,16.4,5.9,16.3,6C16.3,5.9,16.3,6,16.3,6z M16.2,5.4C16.2,5.4,16.3,5.4,16.2,5.4 C16.3,5.4,16.3,5.4,16.2,5.4C16.3,5.4,16.3,5.4,16.2,5.4C16.3,5.4,16.2,5.4,16.2,5.4z M16.3,5.1C16.3,5.1,16.3,5.1,16.3,5.1 C16.3,5.1,16.3,5.1,16.3,5.1C16.3,5.1,16.3,5.1,16.3,5.1C16.3,5.1,16.3,5.1,16.3,5.1z M16.2,5.8C16.2,5.8,16.2,5.8,16.2,5.8 c0.1,0.1,0.1,0,0.1,0C16.3,5.8,16.3,5.7,16.2,5.8C16.2,5.7,16.2,5.8,16.2,5.8z M16.2,5.6C16.2,5.6,16.2,5.5,16.2,5.6 C16.2,5.5,16.1,5.6,16.2,5.6C16.1,5.6,16.2,5.6,16.2,5.6C16.2,5.6,16.2,5.6,16.2,5.6z M16.1,5.1C16.1,5.1,16.1,5.1,16.1,5.1 C16.1,5.1,16.1,5.1,16.1,5.1C16.1,5.1,16.1,5.1,16.1,5.1C16.1,5.1,16.1,5.1,16.1,5.1z M16.1,5.4C16.1,5.4,16.1,5.4,16.1,5.4 C16.1,5.4,16.1,5.5,16.1,5.4C16.1,5.5,16.1,5.4,16.1,5.4C16.1,5.4,16.1,5.4,16.1,5.4z M16,5.8C16,5.8,16,5.8,16,5.8 C16.1,5.8,16.1,5.8,16,5.8C16.1,5.8,16.1,5.7,16,5.8C16,5.7,16,5.8,16,5.8z M16,5.6C16,5.6,16,5.6,16,5.6C16,5.6,15.9,5.6,16,5.6 C15.9,5.6,16,5.6,16,5.6C16,5.6,16,5.6,16,5.6z M15.9,6C15.9,6,15.9,6.1,15.9,6C16,6.1,16,6,15.9,6C16,6,16,6,15.9,6 C15.9,6,15.9,6,15.9,6z M15.9,5.8C15.9,5.8,15.9,5.8,15.9,5.8C15.8,5.8,15.8,5.8,15.9,5.8C15.8,5.8,15.8,5.8,15.9,5.8 C15.9,5.8,15.9,5.8,15.9,5.8z M15.8,5.6C15.8,5.6,15.8,5.6,15.8,5.6C15.8,5.6,15.8,5.6,15.8,5.6C15.8,5.6,15.8,5.7,15.8,5.6 C15.8,5.7,15.8,5.6,15.8,5.6z M15.7,6C15.7,6,15.7,6.1,15.7,6C15.8,6.1,15.8,6,15.7,6C15.8,6,15.8,6,15.7,6C15.7,6,15.7,6,15.7,6z M15.7,5.8C15.7,5.8,15.7,5.8,15.7,5.8C15.7,5.8,15.6,5.8,15.7,5.8C15.6,5.8,15.7,5.9,15.7,5.8C15.7,5.9,15.7,5.8,15.7,5.8z M15.6,5.6C15.6,5.6,15.6,5.6,15.6,5.6C15.6,5.6,15.6,5.6,15.6,5.6C15.6,5.7,15.6,5.7,15.6,5.6C15.6,5.7,15.6,5.7,15.6,5.6z M15.6,6 C15.6,6,15.5,6,15.6,6C15.5,6,15.6,6.1,15.6,6C15.6,6.1,15.6,6,15.6,6C15.6,6,15.6,6,15.6,6z M15.6,5.5C15.6,5.5,15.6,5.4,15.6,5.5 C15.5,5.4,15.5,5.5,15.6,5.5C15.5,5.5,15.5,5.5,15.6,5.5C15.6,5.5,15.6,5.5,15.6,5.5z M15.5,6.2C15.5,6.2,15.5,6.3,15.5,6.2 C15.5,6.3,15.5,6.2,15.5,6.2C15.5,6.2,15.5,6.2,15.5,6.2C15.5,6.2,15.5,6.2,15.5,6.2z M15.5,5.7C15.5,5.6,15.5,5.6,15.5,5.7 C15.4,5.6,15.4,5.6,15.5,5.7C15.4,5.7,15.4,5.7,15.5,5.7C15.5,5.7,15.5,5.7,15.5,5.7z M15.4,6C15.4,6,15.4,6,15.4,6 C15.4,6,15.4,6,15.4,6C15.4,6.1,15.4,6.1,15.4,6C15.4,6.1,15.4,6.1,15.4,6C15.4,6,15.5,6,15.4,6C15.5,6,15.4,6,15.4,6z M15.4,5.5 C15.4,5.5,15.4,5.5,15.4,5.5C15.4,5.5,15.4,5.5,15.4,5.5C15.4,5.5,15.4,5.5,15.4,5.5C15.4,5.5,15.4,5.5,15.4,5.5z M15.4,5.8 C15.3,5.8,15.3,5.8,15.4,5.8C15.3,5.9,15.3,5.9,15.4,5.8C15.4,5.9,15.4,5.9,15.4,5.8C15.4,5.8,15.4,5.8,15.4,5.8z M15.3,6.2 C15.3,6.2,15.3,6.3,15.3,6.2C15.4,6.3,15.4,6.2,15.3,6.2C15.4,6.2,15.4,6.2,15.3,6.2C15.3,6.2,15.3,6.2,15.3,6.2z M15.3,5.7 C15.3,5.7,15.3,5.7,15.3,5.7C15.3,5.7,15.3,5.7,15.3,5.7C15.3,5.7,15.3,5.7,15.3,5.7C15.3,5.7,15.3,5.7,15.3,5.7z M15.3,6 C15.3,6,15.2,6,15.3,6C15.2,6.1,15.3,6.1,15.3,6C15.3,6.1,15.3,6.1,15.3,6C15.3,6,15.3,6,15.3,6z M15.2,6.4 C15.2,6.4,15.2,6.5,15.2,6.4C15.3,6.5,15.3,6.4,15.2,6.4C15.3,6.4,15.3,6.4,15.2,6.4C15.2,6.4,15.2,6.4,15.2,6.4z M15.2,6.9 C15.2,6.9,15.2,6.9,15.2,6.9C15.2,7,15.2,7,15.2,6.9C15.2,7,15.3,7,15.2,6.9C15.3,6.9,15.2,6.9,15.2,6.9z M15.2,6.6 C15.2,6.6,15.2,6.6,15.2,6.6C15.2,6.6,15.2,6.6,15.2,6.6C15.2,6.6,15.2,6.6,15.2,6.6C15.2,6.6,15.2,6.6,15.2,6.6z M15.2,6.2 C15.2,6.2,15.2,6.2,15.2,6.2C15.2,6.2,15.2,6.2,15.2,6.2C15.2,6.2,15.2,6.3,15.2,6.2C15.2,6.3,15.2,6.2,15.2,6.2z M15.1,6.8 C15.1,6.8,15.1,6.8,15.1,6.8C15.1,6.8,15.1,6.8,15.1,6.8C15.1,6.8,15.1,6.8,15.1,6.8C15.1,6.8,15.1,6.8,15.1,6.8 C15.2,6.8,15.2,6.8,15.1,6.8C15.2,6.8,15.2,6.8,15.1,6.8C15.2,6.8,15.2,6.8,15.1,6.8C15.2,6.8,15.2,6.8,15.1,6.8 C15.2,6.8,15.2,6.8,15.1,6.8z M15.1,6.4C15.1,6.4,15.1,6.4,15.1,6.4C15.1,6.4,15.2,6.4,15.1,6.4C15.2,6.4,15.1,6.4,15.1,6.4 C15.1,6.4,15.1,6.4,15.1,6.4z M15.1,6.1C15.1,6.1,15.2,6.1,15.1,6.1C15.2,6,15.1,6,15.1,6.1C15.1,6,15.1,6,15.1,6.1 C15.1,6.1,15.1,6.1,15.1,6.1z M15.1,7.7C15.1,7.7,15.1,7.7,15.1,7.7C15.1,7.7,15.1,7.7,15.1,7.7C15.1,7.7,15.1,7.7,15.1,7.7 C15.1,7.7,15.1,7.7,15.1,7.7z M15.1,7.6C15.1,7.6,15.1,7.6,15.1,7.6C15.1,7.6,15.1,7.6,15.1,7.6C15.1,7.6,15.1,7.6,15.1,7.6 C15.1,7.6,15.1,7.6,15.1,7.6z M15.1,7.5C15.1,7.5,15.1,7.5,15.1,7.5C15.1,7.5,15.1,7.5,15.1,7.5C15.1,7.5,15.1,7.5,15.1,7.5 C15.1,7.5,15.1,7.5,15.1,7.5z M15.2,7.4C15.2,7.4,15.1,7.4,15.2,7.4C15.1,7.4,15.1,7.4,15.2,7.4C15.1,7.4,15.1,7.4,15.2,7.4 C15.1,7.4,15.2,7.4,15.2,7.4z M15.2,7.3C15.2,7.2,15.2,7.2,15.2,7.3C15.2,7.2,15.1,7.2,15.2,7.3C15.1,7.3,15.2,7.3,15.2,7.3 C15.2,7.3,15.2,7.3,15.2,7.3z M15.2,7.1C15.2,7.1,15.2,7.1,15.2,7.1C15.2,7.1,15.2,7.1,15.2,7.1C15.2,7.1,15.2,7.1,15.2,7.1 C15.2,7.1,15.2,7.1,15.2,7.1z M15.2,7.8C15.2,7.8,15.2,7.8,15.2,7.8C15.2,7.8,15.2,7.8,15.2,7.8C15.2,7.8,15.2,7.8,15.2,7.8 C15.2,7.8,15.2,7.8,15.2,7.8z M15.2,7.7C15.2,7.7,15.2,7.7,15.2,7.7C15.2,7.7,15.2,7.7,15.2,7.7C15.2,7.7,15.2,7.7,15.2,7.7 C15.2,7.7,15.2,7.7,15.2,7.7z M15.2,7.6C15.2,7.6,15.2,7.6,15.2,7.6C15.2,7.6,15.2,7.6,15.2,7.6C15.2,7.6,15.2,7.6,15.2,7.6 C15.2,7.6,15.2,7.6,15.2,7.6z M15.2,7.5C15.2,7.5,15.2,7.5,15.2,7.5C15.2,7.5,15.2,7.5,15.2,7.5C15.2,7.5,15.2,7.5,15.2,7.5 C15.2,7.5,15.2,7.5,15.2,7.5z M15.3,7.4C15.3,7.4,15.3,7.4,15.3,7.4C15.2,7.4,15.2,7.4,15.3,7.4C15.2,7.4,15.2,7.4,15.3,7.4 C15.3,7.4,15.3,7.4,15.3,7.4z M15.3,7.3C15.3,7.3,15.3,7.3,15.3,7.3C15.3,7.3,15.3,7.3,15.3,7.3C15.3,7.3,15.3,7.3,15.3,7.3 C15.3,7.3,15.3,7.3,15.3,7.3z M15.3,7.9C15.3,7.9,15.3,7.9,15.3,7.9C15.3,7.9,15.3,7.9,15.3,7.9C15.3,7.9,15.3,7.9,15.3,7.9 C15.3,7.9,15.3,7.9,15.3,7.9z M15.3,7.8C15.3,7.8,15.3,7.8,15.3,7.8C15.3,7.8,15.3,7.8,15.3,7.8C15.3,7.8,15.3,7.8,15.3,7.8 C15.3,7.8,15.3,7.8,15.3,7.8z M15.3,7.8C15.3,7.7,15.3,7.7,15.3,7.8C15.3,7.7,15.3,7.7,15.3,7.8C15.3,7.8,15.3,7.8,15.3,7.8 C15.3,7.8,15.3,7.8,15.3,7.8z M15.3,7.7C15.3,7.7,15.3,7.7,15.3,7.7C15.3,7.7,15.3,7.7,15.3,7.7C15.3,7.7,15.3,7.7,15.3,7.7 C15.3,7.7,15.3,7.7,15.3,7.7z M15.4,7.6C15.4,7.6,15.4,7.5,15.4,7.6C15.3,7.5,15.3,7.6,15.4,7.6C15.3,7.6,15.3,7.6,15.4,7.6 C15.4,7.6,15.4,7.6,15.4,7.6z M15.4,7.4C15.4,7.4,15.4,7.4,15.4,7.4C15.4,7.4,15.4,7.4,15.4,7.4C15.4,7.5,15.4,7.5,15.4,7.4 C15.4,7.5,15.4,7.5,15.4,7.4z M15.4,7.9C15.4,7.9,15.4,7.9,15.4,7.9C15.4,7.9,15.4,7.9,15.4,7.9C15.4,7.9,15.4,7.9,15.4,7.9 C15.4,7.9,15.4,7.9,15.4,7.9z M15.4,7.9C15.4,7.9,15.4,7.9,15.4,7.9C15.4,7.9,15.4,7.9,15.4,7.9C15.4,7.9,15.4,7.9,15.4,7.9 C15.4,7.9,15.4,7.9,15.4,7.9z M15.4,7.8C15.4,7.8,15.4,7.8,15.4,7.8C15.4,7.8,15.4,7.8,15.4,7.8C15.4,7.8,15.4,7.8,15.4,7.8 C15.4,7.8,15.4,7.8,15.4,7.8z M15.5,7.7C15.5,7.7,15.5,7.7,15.5,7.7C15.5,7.7,15.4,7.7,15.5,7.7C15.4,7.7,15.5,7.7,15.5,7.7 C15.5,7.7,15.5,7.7,15.5,7.7z M15.5,7.6C15.5,7.6,15.5,7.6,15.5,7.6C15.5,7.6,15.5,7.6,15.5,7.6C15.5,7.6,15.5,7.6,15.5,7.6 C15.5,7.6,15.5,7.6,15.5,7.6z M15.5,8C15.5,8,15.5,8,15.5,8C15.5,8,15.5,8,15.5,8C15.5,8,15.5,8,15.5,8C15.5,8,15.5,8,15.5,8z M15.5,8C15.5,8,15.5,8,15.5,8C15.5,8,15.5,8,15.5,8C15.5,8,15.5,8,15.5,8C15.5,8,15.5,8,15.5,8z M15.5,7.9 C15.5,7.9,15.5,7.9,15.5,7.9C15.5,7.9,15.5,7.9,15.5,7.9C15.5,7.9,15.5,7.9,15.5,7.9C15.5,7.9,15.5,7.9,15.5,7.9z M15.6,7.8 C15.6,7.8,15.6,7.8,15.6,7.8C15.6,7.8,15.5,7.8,15.6,7.8C15.5,7.8,15.6,7.8,15.6,7.8C15.6,7.8,15.6,7.8,15.6,7.8z M15.6,7.4 C15.6,7.4,15.6,7.4,15.6,7.4C15.6,7.3,15.6,7.3,15.6,7.4C15.6,7.3,15.5,7.3,15.6,7.4C15.5,7.4,15.6,7.4,15.6,7.4z M15.6,7.7 C15.6,7.7,15.6,7.7,15.6,7.7C15.6,7.7,15.6,7.7,15.6,7.7C15.6,7.8,15.6,7.8,15.6,7.7C15.6,7.8,15.6,7.8,15.6,7.7z M15.6,7.6 C15.6,7.6,15.6,7.7,15.6,7.6C15.6,7.7,15.7,7.6,15.6,7.6C15.7,7.6,15.6,7.6,15.6,7.6C15.6,7.6,15.6,7.6,15.6,7.6z M15.6,8.1 C15.6,8.1,15.6,8.1,15.6,8.1C15.6,8.1,15.6,8.1,15.6,8.1C15.6,8.1,15.6,8.1,15.6,8.1C15.6,8.1,15.6,8.1,15.6,8.1z M15.6,8 C15.6,8,15.6,8,15.6,8C15.6,8,15.6,8,15.6,8C15.6,8,15.6,8,15.6,8C15.6,8,15.6,8,15.6,8z M15.7,7.9C15.7,7.9,15.7,7.9,15.7,7.9 C15.7,7.9,15.7,7.9,15.7,7.9C15.7,8,15.7,8,15.7,7.9C15.7,8,15.7,8,15.7,7.9z M15.7,7.9C15.7,7.9,15.7,7.9,15.7,7.9 C15.7,7.9,15.7,7.9,15.7,7.9C15.7,7.9,15.7,7.9,15.7,7.9C15.7,7.9,15.7,7.9,15.7,7.9z M15.7,8.1C15.7,8.1,15.7,8.1,15.7,8.1 C15.7,8.1,15.7,8.1,15.7,8.1C15.7,8.1,15.7,8.1,15.7,8.1C15.7,8.1,15.7,8.1,15.7,8.1z M15.7,7.8C15.7,7.8,15.7,7.8,15.7,7.8 C15.8,7.8,15.8,7.8,15.7,7.8C15.8,7.8,15.8,7.8,15.7,7.8C15.7,7.8,15.7,7.8,15.7,7.8z M15.7,8.1C15.7,8.1,15.7,8.1,15.7,8.1 C15.7,8.1,15.7,8.1,15.7,8.1C15.7,8.1,15.7,8.1,15.7,8.1C15.7,8.1,15.7,8.1,15.7,8.1z M15.8,8C15.8,8,15.8,8,15.8,8 C15.8,8,15.8,8,15.8,8C15.8,8.1,15.8,8.1,15.8,8C15.8,8.1,15.8,8.1,15.8,8z M15.8,8C15.8,8,15.8,8,15.8,8C15.8,8,15.8,8,15.8,8 C15.8,8,15.8,8,15.8,8C15.8,8,15.8,8,15.8,8z M15.8,7.7C15.8,7.6,15.8,7.6,15.8,7.7C15.8,7.6,15.8,7.6,15.8,7.7 C15.8,7.7,15.8,7.7,15.8,7.7C15.8,7.7,15.8,7.7,15.8,7.7z M15.8,7.5C15.8,7.6,15.8,7.6,15.8,7.5C15.9,7.6,15.9,7.6,15.8,7.5 C15.9,7.5,15.9,7.5,15.8,7.5C15.8,7.5,15.8,7.5,15.8,7.5z M15.8,8.2C15.8,8.2,15.8,8.2,15.8,8.2C15.8,8.2,15.8,8.2,15.8,8.2 C15.8,8.2,15.8,8.2,15.8,8.2C15.8,8.2,15.8,8.2,15.8,8.2z M15.8,7.9C15.9,7.9,15.9,7.9,15.8,7.9C15.9,7.9,15.9,7.9,15.8,7.9 C15.8,7.9,15.8,7.9,15.8,7.9C15.8,7.9,15.8,7.9,15.8,7.9z M15.9,8.1C15.9,8.1,15.9,8.1,15.9,8.1C15.9,8.1,15.9,8.1,15.9,8.1 C15.9,8.1,15.9,8.1,15.9,8.1C15.9,8.1,15.9,8.1,15.9,8.1z M16.1,11.4l0-2c-0.5,0.3-1,0.6-1.2,1C15.2,10.7,15.6,11,16.1,11.4z M16.1,8.2C16.1,8.2,16.1,8.2,16.1,8.2C16.1,8.2,16.1,8.2,16.1,8.2C16.1,8.2,16.1,8.2,16.1,8.2C16.1,8.2,16.1,8.2,16.1,8.2z M16.1,15.3l0-2.1c-0.5,0.3-1,0.7-1.3,1C15.1,14.6,15.6,14.9,16.1,15.3z M16.1,8C16.1,8,16.1,8,16.1,8C16.1,8,16.1,8,16.1,8 C16.1,8,16.1,8,16.1,8C16.1,8,16.1,8.1,16.1,8C16.1,8.1,16.1,8,16.1,8C16.1,8,16.1,8,16.1,8z M16.2,8.2C16.2,8.2,16.2,8.2,16.2,8.2 C16.1,8.2,16.1,8.2,16.2,8.2C16.1,8.2,16.1,8.2,16.2,8.2C16.2,8.2,16.2,8.2,16.2,8.2z M16.2,8C16.2,8,16.2,8,16.2,8 C16.2,7.9,16.2,7.9,16.2,8C16.2,7.9,16.1,7.9,16.2,8C16.1,8,16.2,8,16.2,8z M16.2,8.3C16.2,8.3,16.2,8.3,16.2,8.3 C16.2,8.3,16.2,8.3,16.2,8.3C16.2,8.3,16.2,8.3,16.2,8.3C16.2,8.3,16.2,8.3,16.2,8.3z M16.2,8.1C16.2,8.1,16.2,8.1,16.2,8.1 C16.2,8.1,16.2,8.1,16.2,8.1C16.2,8.1,16.2,8.1,16.2,8.1C16.2,8.1,16.2,8.1,16.2,8.1z M16.2,8.3C16.2,8.2,16.2,8.2,16.2,8.3 C16.2,8.2,16.2,8.2,16.2,8.3C16.2,8.3,16.2,8.3,16.2,8.3C16.2,8.3,16.2,8.3,16.2,8.3z M16.3,8.1C16.3,8.1,16.3,8.1,16.3,8.1 C16.3,8,16.3,8,16.3,8.1C16.3,8,16.2,8,16.3,8.1C16.2,8.1,16.3,8.1,16.3,8.1z M16.3,8.2C16.3,8.2,16.3,8.2,16.3,8.2 C16.3,8.2,16.3,8.2,16.3,8.2C16.3,8.2,16.3,8.2,16.3,8.2C16.3,8.2,16.3,8.2,16.3,8.2z M16.3,8.3C16.3,8.3,16.3,8.3,16.3,8.3 C16.3,8.3,16.3,8.3,16.3,8.3C16.3,8.3,16.3,8.3,16.3,8.3C16.3,8.3,16.3,8.3,16.3,8.3z M16.3,8C16.3,8,16.4,8,16.3,8 C16.4,7.9,16.3,7.9,16.3,8C16.3,7.9,16.3,7.9,16.3,8C16.3,8,16.3,8,16.3,8z M16.4,8.2C16.4,8.2,16.4,8.1,16.4,8.2 C16.4,8.1,16.4,8.1,16.4,8.2C16.3,8.1,16.3,8.1,16.4,8.2C16.3,8.1,16.3,8.2,16.4,8.2z M16.4,8.3C16.4,8.3,16.4,8.3,16.4,8.3 C16.4,8.3,16.4,8.3,16.4,8.3C16.4,8.3,16.4,8.3,16.4,8.3C16.4,8.3,16.4,8.3,16.4,8.3z M16.4,7.8C16.4,7.9,16.4,7.9,16.4,7.8 C16.4,7.9,16.4,7.9,16.4,7.8C16.4,7.8,16.4,7.8,16.4,7.8C16.4,7.8,16.4,7.8,16.4,7.8z M16.4,8.3C16.4,8.3,16.4,8.3,16.4,8.3 C16.4,8.3,16.4,8.3,16.4,8.3C16.4,8.3,16.4,8.3,16.4,8.3C16.4,8.3,16.4,8.3,16.4,8.3z M16.4,8.1C16.4,8.1,16.4,8.1,16.4,8.1 C16.4,8.1,16.4,8.1,16.4,8.1C16.4,8,16.4,8,16.4,8.1C16.4,8,16.4,8,16.4,8.1C16.4,8.1,16.4,8.1,16.4,8.1C16.4,8.1,16.4,8.1,16.4,8.1 z M16.4,8.2C16.4,8.2,16.5,8.2,16.4,8.2C16.5,8.2,16.4,8.2,16.4,8.2C16.4,8.2,16.4,8.2,16.4,8.2C16.4,8.2,16.4,8.2,16.4,8.2z M16.5,8.3C16.5,8.3,16.5,8.3,16.5,8.3C16.5,8.3,16.4,8.3,16.5,8.3C16.4,8.3,16.5,8.3,16.5,8.3C16.5,8.3,16.5,8.3,16.5,8.3z M16.5,8.3C16.5,8.3,16.5,8.3,16.5,8.3C16.5,8.3,16.5,8.3,16.5,8.3C16.5,8.3,16.5,8.3,16.5,8.3C16.5,8.3,16.5,8.3,16.5,8.3z M16.5,8.3C16.5,8.3,16.5,8.3,16.5,8.3C16.5,8.3,16.5,8.3,16.5,8.3C16.5,8.3,16.5,8.3,16.5,8.3C16.5,8.3,16.5,8.3,16.5,8.3z M16.5,8.1C16.5,8.1,16.5,8.1,16.5,8.1C16.5,8.1,16.5,8.1,16.5,8.1C16.5,8.2,16.5,8.2,16.5,8.1C16.5,8.2,16.5,8.2,16.5,8.1z M16.5,8 C16.5,8,16.5,7.9,16.5,8C16.5,7.9,16.5,8,16.5,8C16.5,8,16.5,8,16.5,8C16.5,8,16.5,8,16.5,8z M16.5,7.7C16.5,7.7,16.5,7.7,16.5,7.7 C16.5,7.7,16.5,7.7,16.5,7.7C16.5,7.7,16.5,7.7,16.5,7.7C16.5,7.7,16.5,7.8,16.5,7.7C16.5,7.8,16.5,7.7,16.5,7.7 C16.5,7.7,16.5,7.7,16.5,7.7z M16.5,7.4C16.5,7.4,16.5,7.4,16.5,7.4C16.5,7.4,16.5,7.4,16.5,7.4C16.5,7.5,16.5,7.5,16.5,7.4 C16.5,7.5,16.5,7.5,16.5,7.4z M16.6,8.3C16.6,8.3,16.6,8.3,16.6,8.3C16.6,8.3,16.6,8.3,16.6,8.3C16.6,8.3,16.6,8.3,16.6,8.3 C16.6,8.3,16.6,8.3,16.6,8.3z M16.6,8.2C16.6,8.2,16.6,8.2,16.6,8.2C16.6,8.2,16.6,8.2,16.6,8.2C16.6,8.2,16.6,8.2,16.6,8.2 C16.6,8.2,16.6,8.2,16.6,8.2z M16.6,8.1C16.6,8.1,16.6,8,16.6,8.1C16.6,8,16.6,8.1,16.6,8.1C16.6,8.1,16.6,8.1,16.6,8.1 C16.6,8.1,16.6,8.1,16.6,8.1z M16.6,7.9C16.6,7.8,16.6,7.8,16.6,7.9C16.6,7.8,16.6,7.8,16.6,7.9C16.6,7.9,16.6,7.9,16.6,7.9 C16.6,7.9,16.6,7.9,16.6,7.9z M16.6,7.6C16.6,7.6,16.6,7.5,16.6,7.6C16.6,7.5,16.6,7.6,16.6,7.6C16.6,7.6,16.6,7.6,16.6,7.6 C16.6,7.6,16.6,7.6,16.6,7.6z M16.6,7.4C16.6,7.5,16.7,7.5,16.6,7.4C16.7,7.5,16.7,7.5,16.6,7.4C16.7,7.4,16.7,7.4,16.6,7.4 C16.7,7.4,16.6,7.4,16.6,7.4z M16.7,8.3C16.7,8.3,16.7,8.3,16.7,8.3C16.7,8.3,16.7,8.3,16.7,8.3C16.7,8.3,16.7,8.3,16.7,8.3 C16.7,8.3,16.7,8.3,16.7,8.3z M16.7,8.3C16.7,8.3,16.7,8.3,16.7,8.3C16.7,8.3,16.7,8.3,16.7,8.3C16.7,8.3,16.7,8.3,16.7,8.3 C16.7,8.3,16.7,8.3,16.7,8.3z M16.7,8.1C16.7,8.1,16.7,8.1,16.7,8.1C16.7,8.1,16.7,8.1,16.7,8.1C16.7,8.2,16.7,8.2,16.7,8.1 C16.7,8.2,16.7,8.2,16.7,8.1z M16.7,8C16.7,7.9,16.7,7.9,16.7,8C16.7,7.9,16.7,7.9,16.7,8C16.7,8,16.7,8,16.7,8 C16.7,8,16.7,8,16.7,8z M16.7,7.7C16.7,7.7,16.7,7.7,16.7,7.7C16.7,7.7,16.7,7.7,16.7,7.7C16.7,7.7,16.7,7.7,16.7,7.7 C16.7,7.7,16.7,7.7,16.7,7.7C16.7,7.7,16.7,7.8,16.7,7.7C16.7,7.8,16.7,7.8,16.7,7.7z M16.7,8.3C16.7,8.3,16.7,8.3,16.7,8.3 C16.7,8.3,16.7,8.3,16.7,8.3C16.7,8.3,16.7,8.3,16.7,8.3C16.7,8.3,16.7,8.3,16.7,8.3z M16.8,8.2C16.8,8.2,16.7,8.2,16.8,8.2 C16.7,8.2,16.7,8.2,16.8,8.2C16.7,8.2,16.7,8.2,16.8,8.2C16.7,8.2,16.8,8.2,16.8,8.2z M16.8,8.1C16.8,8,16.8,8,16.8,8.1 C16.7,8,16.7,8,16.8,8.1C16.7,8.1,16.7,8.1,16.8,8.1C16.8,8.1,16.8,8.1,16.8,8.1z M16.8,8.3C16.8,8.3,16.8,8.3,16.8,8.3 C16.8,8.3,16.8,8.3,16.8,8.3C16.8,8.3,16.8,8.3,16.8,8.3C16.8,8.3,16.8,8.3,16.8,8.3z M16.8,8.3C16.8,8.3,16.8,8.3,16.8,8.3 C16.8,8.3,16.8,8.3,16.8,8.3C16.8,8.3,16.8,8.3,16.8,8.3C16.8,8.3,16.8,8.3,16.8,8.3z M16.8,8.1C16.8,8.1,16.8,8.1,16.8,8.1 C16.8,8.1,16.8,8.1,16.8,8.1C16.8,8.1,16.8,8.2,16.8,8.1C16.8,8.2,16.8,8.1,16.8,8.1z M16.9,8.3C16.9,8.3,16.9,8.3,16.9,8.3 C16.9,8.3,16.9,8.3,16.9,8.3C16.9,8.3,16.9,8.3,16.9,8.3C16.9,8.3,16.9,8.3,16.9,8.3z M16.9,8C16.9,7.9,16.9,7.9,16.9,8 C16.8,7.9,16.8,7.9,16.9,8C16.8,8,16.8,8,16.9,8C16.9,8,16.9,8,16.9,8z M16.9,8.2C16.9,8.2,16.9,8.2,16.9,8.2 C16.9,8.2,16.9,8.2,16.9,8.2C16.9,8.2,16.9,8.2,16.9,8.2C16.9,8.2,16.9,8.2,16.9,8.2z M16.9,8.3C16.9,8.3,16.9,8.3,16.9,8.3 C16.9,8.3,16.9,8.3,16.9,8.3C16.9,8.3,16.9,8.3,16.9,8.3C16.9,8.3,16.9,8.3,16.9,8.3z M16.9,8.1C16.9,8.1,16.9,8.1,16.9,8.1 C16.9,8,16.9,8,16.9,8.1C16.9,8,16.9,8,16.9,8.1C16.9,8.1,16.9,8.1,16.9,8.1z M17,8.2C17,8.2,16.9,8.2,17,8.2 C16.9,8.2,16.9,8.2,17,8.2C16.9,8.3,16.9,8.3,17,8.2C16.9,8.3,17,8.3,17,8.2z M17,8.3C17,8.3,17,8.3,17,8.3C17,8.3,17,8.3,17,8.3 C17,8.3,17,8.3,17,8.3C17,8.3,17,8.3,17,8.3z M17,8.1C17,8.1,17,8.1,17,8.1C17,8.1,17,8.1,17,8.1C17,8.1,17,8.1,17,8.1 C17,8.1,17,8.1,17,8.1z M17,8C17,8,17,8,17,8C17,7.9,17,7.9,17,8C17,7.9,17,7.9,17,8C17,8,17,8,17,8z M17,8.2C17,8.2,17,8.2,17,8.2 C17,8.2,17,8.2,17,8.2C17,8.2,17,8.2,17,8.2C17,8.2,17,8.2,17,8.2z M17.1,7.7C17.1,7.7,17.1,7.7,17.1,7.7 C17.1,7.7,17.1,7.7,17.1,7.7C17.1,7.7,17.1,7.7,17.1,7.7C17,7.7,17,7.7,17.1,7.7C17,7.7,17,7.7,17.1,7.7C17,7.7,17,7.7,17.1,7.7z M17.1,8.2C17.1,8.2,17.1,8.2,17.1,8.2C17.1,8.2,17.1,8.2,17.1,8.2C17.1,8.2,17.1,8.2,17.1,8.2C17.1,8.2,17.1,8.2,17.1,8.2z M17.1,8 C17.1,8,17.1,8,17.1,8C17.1,8,17.1,8,17.1,8C17.1,8,17.1,8,17.1,8C17.1,8,17.1,8,17.1,8C17.1,8,17.1,8,17.1,8C17.1,8,17.1,8,17.1,8z M17.1,8.3C17.1,8.2,17.1,8.2,17.1,8.3C17.1,8.2,17.1,8.2,17.1,8.3C17.1,8.3,17.1,8.3,17.1,8.3C17.1,8.3,17.1,8.3,17.1,8.3L17.1,8.3 z M17.1,13.1l0,2.3c0.6-0.4,1.1-0.7,1.4-1.1C18.2,13.8,17.7,13.5,17.1,13.1z M18.7,10C18.7,10,18.7,9.9,18.7,10c0-0.1,0-0.1,0-0.1 V10z M17.1,9.2l0,2.3c0.6-0.4,1.1-0.7,1.4-1.1C18.2,10,17.7,9.6,17.1,9.2z M18.2,6.9C18.2,6.9,18.2,6.9,18.2,6.9 C18.2,6.9,18.2,6.9,18.2,6.9C18.2,6.9,18.2,6.9,18.2,6.9C18.2,6.9,18.2,6.9,18.2,6.9z M18.2,7.1C18.2,7.1,18.2,7.1,18.2,7.1 C18.2,7.1,18.2,7.1,18.2,7.1C18.2,7,18.2,7,18.2,7.1C18.2,7,18.2,7,18.2,7.1z M18.2,7.2C18.2,7.2,18.2,7.2,18.2,7.2 C18.2,7.2,18.2,7.2,18.2,7.2C18.2,7.2,18.2,7.2,18.2,7.2C18.2,7.2,18.2,7.2,18.2,7.2z M18.2,7.5C18.2,7.5,18.2,7.5,18.2,7.5 C18.2,7.5,18.2,7.5,18.2,7.5C18.2,7.5,18.2,7.5,18.2,7.5C18.2,7.5,18.2,7.5,18.2,7.5z M18.2,7.4C18.2,7.4,18.2,7.4,18.2,7.4 C18.2,7.4,18.2,7.4,18.2,7.4C18.2,7.4,18.2,7.4,18.2,7.4C18.2,7.4,18.2,7.4,18.2,7.4z M18.2,7.3C18.2,7.3,18.2,7.3,18.2,7.3 C18.2,7.3,18.2,7.3,18.2,7.3C18.2,7.3,18.2,7.3,18.2,7.3C18.2,7.3,18.2,7.3,18.2,7.3z M18.2,6.8C18.3,6.8,18.3,6.8,18.2,6.8 C18.3,6.7,18.3,6.7,18.2,6.8C18.3,6.7,18.3,6.7,18.2,6.8C18.2,6.7,18.2,6.7,18.2,6.8C18.2,6.7,18.2,6.8,18.2,6.8 C18.2,6.8,18.2,6.8,18.2,6.8z M18.3,6.1C18.3,6.1,18.3,6.1,18.3,6.1C18.2,6.1,18.2,6.1,18.3,6.1C18.2,6.1,18.2,6.1,18.3,6.1 C18.3,6.1,18.3,6.1,18.3,6.1z M18.3,6.4C18.3,6.4,18.2,6.4,18.3,6.4C18.2,6.4,18.3,6.4,18.3,6.4C18.3,6.4,18.3,6.4,18.3,6.4 C18.3,6.4,18.3,6.4,18.3,6.4z M18.3,7.4C18.3,7.4,18.3,7.4,18.3,7.4C18.3,7.4,18.3,7.4,18.3,7.4C18.3,7.4,18.3,7.4,18.3,7.4 C18.3,7.4,18.3,7.4,18.3,7.4z M18.3,6.9C18.3,6.9,18.3,6.9,18.3,6.9C18.3,6.9,18.3,6.9,18.3,6.9C18.3,6.9,18.3,6.9,18.3,6.9 C18.3,6.9,18.3,6.9,18.3,6.9z M18.3,7C18.3,7,18.3,7,18.3,7C18.3,7,18.3,7,18.3,7C18.3,7,18.3,7,18.3,7C18.3,7,18.3,7,18.3,7z M18.3,7.3C18.3,7.3,18.3,7.3,18.3,7.3C18.3,7.3,18.3,7.3,18.3,7.3C18.3,7.3,18.3,7.3,18.3,7.3C18.3,7.3,18.3,7.3,18.3,7.3z M18.3,7.3C18.3,7.2,18.3,7.2,18.3,7.3C18.3,7.2,18.3,7.2,18.3,7.3C18.3,7.3,18.3,7.3,18.3,7.3C18.3,7.3,18.3,7.3,18.3,7.3z M18.3,7.1C18.3,7.1,18.3,7.1,18.3,7.1C18.3,7.1,18.3,7.1,18.3,7.1C18.3,7.1,18.3,7.2,18.3,7.1C18.3,7.2,18.3,7.1,18.3,7.1z M18.3,6.6C18.3,6.6,18.3,6.6,18.3,6.6C18.3,6.6,18.3,6.6,18.3,6.6C18.3,6.6,18.3,6.6,18.3,6.6C18.3,6.6,18.3,6.6,18.3,6.6z M18.3,6.3C18.3,6.3,18.3,6.3,18.3,6.3C18.3,6.2,18.3,6.2,18.3,6.3C18.3,6.2,18.3,6.2,18.3,6.3C18.3,6.3,18.3,6.3,18.3,6.3z M18.3,7.3C18.3,7.3,18.3,7.3,18.3,7.3C18.3,7.3,18.3,7.3,18.3,7.3C18.3,7.3,18.3,7.3,18.3,7.3C18.3,7.3,18.3,7.3,18.3,7.3z M18.3,6.7C18.3,6.7,18.4,6.7,18.3,6.7C18.4,6.7,18.3,6.7,18.3,6.7C18.3,6.7,18.3,6.7,18.3,6.7C18.3,6.7,18.3,6.7,18.3,6.7z M18.3,6.9C18.3,6.9,18.3,6.9,18.3,6.9C18.4,6.9,18.4,6.9,18.3,6.9C18.4,6.9,18.4,6.9,18.3,6.9C18.3,6.9,18.3,6.9,18.3,6.9z M18.4,7.2C18.4,7.2,18.4,7.2,18.4,7.2C18.3,7.2,18.3,7.2,18.4,7.2C18.3,7.2,18.3,7.2,18.4,7.2C18.4,7.2,18.4,7.2,18.4,7.2z M18.4,7.1C18.4,7.1,18.4,7.1,18.4,7.1C18.4,7.1,18.4,7.1,18.4,7.1C18.4,7.1,18.4,7.1,18.4,7.1C18.4,7.1,18.4,7.1,18.4,7.1z M18.4,7.3C18.4,7.3,18.4,7.2,18.4,7.3C18.4,7.2,18.4,7.3,18.4,7.3C18.4,7.3,18.4,7.3,18.4,7.3C18.4,7.3,18.4,7.3,18.4,7.3z M18.4,7 C18.4,7,18.4,7,18.4,7C18.4,7,18.4,7,18.4,7C18.4,7,18.4,7,18.4,7C18.4,7,18.4,7,18.4,7z M18.4,6.4C18.4,6.4,18.4,6.4,18.4,6.4 C18.3,6.4,18.3,6.4,18.4,6.4C18.3,6.4,18.3,6.4,18.4,6.4C18.4,6.4,18.4,6.4,18.4,6.4z M18.4,6.6C18.4,6.6,18.4,6.6,18.4,6.6 C18.4,6.6,18.4,6.6,18.4,6.6C18.4,6.6,18.4,6.6,18.4,6.6C18.4,6.6,18.4,6.6,18.4,6.6C18.4,6.6,18.4,6.6,18.4,6.6 C18.4,6.6,18.4,6.6,18.4,6.6z M18.4,7.2C18.4,7.2,18.4,7.2,18.4,7.2C18.4,7.2,18.4,7.2,18.4,7.2C18.4,7.2,18.4,7.2,18.4,7.2 C18.4,7.2,18.4,7.2,18.4,7.2z M18.4,7.1C18.4,7.1,18.4,7.1,18.4,7.1C18.4,7.1,18.4,7.1,18.4,7.1C18.4,7.1,18.4,7.1,18.4,7.1 C18.4,7.1,18.4,7.1,18.4,7.1z M18.4,6.9C18.4,6.9,18.4,6.8,18.4,6.9C18.4,6.8,18.4,6.8,18.4,6.9C18.4,6.8,18.4,6.8,18.4,6.9 C18.4,6.8,18.4,6.9,18.4,6.9z M18.4,7.1C18.4,7.1,18.4,7.1,18.4,7.1C18.4,7.1,18.4,7.1,18.4,7.1C18.4,7.1,18.4,7.1,18.4,7.1 C18.4,7.1,18.4,7.1,18.4,7.1z M18.4,7C18.4,7,18.4,7,18.4,7C18.4,7,18.4,7,18.4,7C18.4,7,18.4,7,18.4,7C18.4,7,18.4,7,18.4,7z M18.4,6.4C18.4,6.4,18.4,6.4,18.4,6.4C18.4,6.4,18.4,6.4,18.4,6.4C18.4,6.4,18.4,6.4,18.4,6.4C18.4,6.4,18.4,6.4,18.4,6.4z M18.5,7 C18.5,7,18.5,7,18.5,7C18.4,7,18.4,7,18.5,7C18.4,7,18.4,7,18.5,7C18.5,7,18.5,7,18.5,7z M18.5,6.6C18.5,6.6,18.5,6.6,18.5,6.6 C18.5,6.5,18.5,6.5,18.5,6.6C18.4,6.5,18.4,6.5,18.5,6.6C18.4,6.6,18.4,6.6,18.5,6.6z M18.5,6.7C18.5,6.7,18.5,6.7,18.5,6.7 C18.5,6.7,18.5,6.7,18.5,6.7C18.5,6.7,18.5,6.7,18.5,6.7C18.5,6.7,18.5,6.7,18.5,6.7z M18.5,6.9C18.5,6.9,18.5,6.9,18.5,6.9 C18.5,6.9,18.5,6.9,18.5,6.9C18.5,6.9,18.5,6.9,18.5,6.9C18.5,6.9,18.5,6.9,18.5,6.9z M18.5,7C18.5,7,18.5,7,18.5,7 C18.5,7,18.5,7,18.5,7C18.5,7,18.5,7,18.5,7C18.5,7,18.5,7,18.5,7z M18.5,6.8C18.5,6.8,18.5,6.8,18.5,6.8 C18.5,6.8,18.5,6.8,18.5,6.8C18.5,6.8,18.5,6.8,18.5,6.8C18.5,6.8,18.5,6.8,18.5,6.8z M18.5,7.1C18.5,7.1,18.5,7.1,18.5,7.1 C18.5,7.1,18.5,7.1,18.5,7.1L18.5,7.1L18.5,7.1z M18.5,6.8C18.5,6.8,18.5,6.8,18.5,6.8C18.5,6.8,18.5,6.8,18.5,6.8 C18.5,6.8,18.5,6.8,18.5,6.8C18.5,6.8,18.5,6.8,18.5,6.8z M18.5,6.9C18.5,6.9,18.5,6.9,18.5,6.9C18.5,6.9,18.5,6.9,18.5,6.9 C18.5,6.9,18.5,6.9,18.5,6.9C18.5,6.9,18.5,6.9,18.5,6.9z M18.5,6.8C18.5,6.8,18.5,6.8,18.5,6.8C18.5,6.8,18.5,6.8,18.5,6.8 C18.5,6.8,18.5,6.8,18.5,6.8C18.5,6.8,18.5,6.8,18.5,6.8z M18.5,6.7C18.5,6.7,18.5,6.7,18.5,6.7C18.5,6.7,18.5,6.7,18.5,6.7 C18.5,6.7,18.5,6.7,18.5,6.7C18.5,6.7,18.5,6.7,18.5,6.7z M18.6,6.4C18.6,6.4,18.6,6.4,18.6,6.4C18.6,6.4,18.6,6.4,18.6,6.4 C18.6,6.4,18.6,6.4,18.6,6.4C18.6,6.4,18.6,6.4,18.6,6.4z M18.6,6.5C18.6,6.5,18.6,6.5,18.6,6.5C18.6,6.5,18.6,6.5,18.6,6.5 C18.6,6.5,18.6,6.5,18.6,6.5L18.6,6.5z M18.6,6.3C18.6,6.3,18.6,6.3,18.6,6.3C18.6,6.3,18.6,6.3,18.6,6.3 C18.6,6.3,18.6,6.3,18.6,6.3C18.6,6.3,18.6,6.3,18.6,6.3z M18.6,6.1C18.6,6.1,18.6,6.1,18.6,6.1C18.6,6.1,18.6,6.1,18.6,6.1 C18.6,6.1,18.6,6.1,18.6,6.1C18.6,6.1,18.6,6.1,18.6,6.1C18.6,6.1,18.6,6.1,18.6,6.1C18.6,6.1,18.6,6.1,18.6,6.1z M18.6,6.5 C18.6,6.5,18.6,6.5,18.6,6.5C18.6,6.5,18.6,6.5,18.6,6.5C18.6,6.5,18.6,6.5,18.6,6.5C18.6,6.5,18.6,6.5,18.6,6.5z M18.6,6.4 C18.6,6.4,18.6,6.4,18.6,6.4C18.6,6.4,18.6,6.4,18.6,6.4C18.6,6.4,18.6,6.4,18.6,6.4C18.6,6.4,18.6,6.4,18.6,6.4z M18.6,6.6 C18.6,6.6,18.6,6.6,18.6,6.6C18.6,6.6,18.6,6.6,18.6,6.6C18.6,6.6,18.6,6.6,18.6,6.6C18.6,6.6,18.6,6.6,18.6,6.6z M18.6,6.1 C18.6,6.1,18.6,6.1,18.6,6.1C18.6,6.1,18.6,6.1,18.6,6.1C18.6,6.1,18.6,6.1,18.6,6.1C18.6,6.1,18.6,6.1,18.6,6.1z M18.6,6 C18.6,6,18.6,6,18.6,6C18.6,6,18.6,6,18.6,6C18.6,6,18.6,6,18.6,6C18.6,6,18.6,6,18.6,6z M18.5,6.3C18.5,6.3,18.5,6.3,18.5,6.3 C18.6,6.3,18.6,6.3,18.5,6.3C18.6,6.3,18.6,6.3,18.5,6.3C18.5,6.3,18.5,6.3,18.5,6.3z M18.5,6.5C18.5,6.5,18.5,6.5,18.5,6.5 C18.5,6.5,18.5,6.5,18.5,6.5C18.5,6.5,18.5,6.5,18.5,6.5C18.5,6.5,18.5,6.5,18.5,6.5z M18.5,5.9C18.5,5.9,18.5,5.9,18.5,5.9 C18.5,5.9,18.5,5.9,18.5,5.9C18.5,5.9,18.5,5.9,18.5,5.9C18.5,5.9,18.5,5.9,18.5,5.9z M18.5,6.4C18.5,6.4,18.5,6.4,18.5,6.4 C18.5,6.4,18.5,6.4,18.5,6.4C18.5,6.4,18.5,6.4,18.5,6.4C18.5,6.4,18.5,6.4,18.5,6.4z M18.5,6C18.5,6,18.5,6,18.5,6 C18.5,6,18.5,6,18.5,6C18.5,6,18.5,6,18.5,6C18.5,6,18.5,6,18.5,6z M18.5,6.1C18.5,6.1,18.5,6.1,18.5,6.1 C18.5,6.1,18.5,6.1,18.5,6.1C18.5,6.1,18.5,6.1,18.5,6.1C18.5,6.1,18.5,6.1,18.5,6.1z M18.5,5.9C18.5,5.9,18.5,5.9,18.5,5.9 C18.5,5.9,18.5,5.9,18.5,5.9C18.5,5.9,18.5,5.9,18.5,5.9C18.5,5.9,18.5,5.9,18.5,5.9z M18.5,6.7C18.5,6.7,18.5,6.7,18.5,6.7 C18.5,6.7,18.5,6.7,18.5,6.7C18.5,6.7,18.5,6.7,18.5,6.7C18.5,6.7,18.5,6.7,18.5,6.7z M18.5,6.3C18.5,6.3,18.5,6.3,18.5,6.3 C18.5,6.3,18.5,6.3,18.5,6.3C18.5,6.3,18.5,6.3,18.5,6.3C18.5,6.3,18.5,6.3,18.5,6.3z M18.5,5.8C18.5,5.8,18.5,5.8,18.5,5.8 C18.5,5.8,18.5,5.8,18.5,5.8C18.5,5.8,18.5,5.8,18.5,5.8C18.5,5.8,18.5,5.8,18.5,5.8z M18.5,6.5C18.5,6.5,18.5,6.5,18.5,6.5 C18.5,6.5,18.5,6.5,18.5,6.5C18.5,6.5,18.5,6.5,18.5,6.5C18.5,6.5,18.5,6.5,18.5,6.5z M18.5,6.9C18.5,6.9,18.5,6.9,18.5,6.9 C18.5,6.9,18.5,6.9,18.5,6.9C18.5,6.9,18.5,6.9,18.5,6.9C18.5,6.9,18.5,6.9,18.5,6.9z M18.5,6.4C18.5,6.4,18.5,6.4,18.5,6.4 C18.5,6.4,18.5,6.4,18.5,6.4C18.5,6.4,18.5,6.4,18.5,6.4C18.5,6.4,18.5,6.4,18.5,6.4C18.5,6.4,18.5,6.4,18.5,6.4 C18.5,6.4,18.5,6.4,18.5,6.4z M18.5,5.9C18.5,5.9,18.5,5.9,18.5,5.9C18.5,5.9,18.5,5.9,18.5,5.9C18.5,5.9,18.5,5.9,18.5,5.9 C18.5,5.9,18.5,5.9,18.5,5.9z M18.5,6C18.5,6,18.5,6,18.5,6C18.5,6,18.5,6,18.5,6C18.5,6,18.5,6,18.5,6C18.5,6,18.5,6,18.5,6z M18.5,5.7C18.5,5.7,18.5,5.7,18.5,5.7C18.5,5.7,18.5,5.7,18.5,5.7C18.5,5.7,18.5,5.7,18.5,5.7C18.5,5.7,18.5,5.7,18.5,5.7z M18.5,6.1C18.5,6.1,18.5,6.1,18.5,6.1C18.5,6.1,18.5,6.1,18.5,6.1C18.5,6.1,18.5,6.1,18.5,6.1C18.5,6.1,18.5,6.1,18.5,6.1z M18.5,5.6C18.5,5.6,18.5,5.6,18.5,5.6C18.5,5.6,18.5,5.6,18.5,5.6C18.5,5.6,18.5,5.6,18.5,5.6C18.5,5.6,18.5,5.6,18.5,5.6z M18.5,6.2C18.5,6.2,18.5,6.2,18.5,6.2C18.5,6.3,18.5,6.3,18.5,6.2C18.5,6.3,18.5,6.3,18.5,6.2C18.5,6.2,18.5,6.2,18.5,6.2z M18.4,5.7C18.4,5.7,18.4,5.7,18.4,5.7C18.4,5.7,18.4,5.7,18.4,5.7C18.4,5.7,18.4,5.7,18.4,5.7C18.4,5.7,18.4,5.7,18.4,5.7z M18.4,5.8C18.4,5.8,18.4,5.8,18.4,5.8C18.4,5.8,18.5,5.8,18.4,5.8C18.5,5.8,18.4,5.8,18.4,5.8C18.4,5.8,18.4,5.8,18.4,5.8z M18.4,6 C18.4,6,18.4,6,18.4,6C18.4,6,18.4,6,18.4,6C18.4,6,18.4,6,18.4,6C18.4,6,18.4,6,18.4,6z M18.4,5.6C18.4,5.6,18.4,5.6,18.4,5.6 C18.4,5.6,18.4,5.6,18.4,5.6C18.4,5.6,18.4,5.6,18.4,5.6C18.4,5.6,18.4,5.6,18.4,5.6z M18.4,6.1C18.4,6.1,18.4,6.1,18.4,6.1 C18.4,6.1,18.4,6.1,18.4,6.1C18.4,6.1,18.4,6.1,18.4,6.1C18.4,6.1,18.4,6.1,18.4,6.1z M18.4,6.7C18.4,6.7,18.4,6.7,18.4,6.7 C18.4,6.7,18.4,6.7,18.4,6.7C18.4,6.7,18.4,6.7,18.4,6.7C18.4,6.7,18.4,6.7,18.4,6.7z M18.4,5.5C18.4,5.5,18.4,5.5,18.4,5.5 C18.4,5.5,18.4,5.5,18.4,5.5C18.4,5.5,18.4,5.5,18.4,5.5C18.4,5.5,18.4,5.5,18.4,5.5z M18.4,6.3C18.4,6.2,18.4,6.2,18.4,6.3 C18.4,6.2,18.4,6.2,18.4,6.3C18.4,6.3,18.4,6.3,18.4,6.3C18.4,6.3,18.4,6.3,18.4,6.3z M18.4,5.7C18.4,5.7,18.4,5.7,18.4,5.7 C18.4,5.7,18.4,5.7,18.4,5.7C18.4,5.7,18.4,5.7,18.4,5.7C18.4,5.7,18.4,5.7,18.4,5.7z M18.4,5.6C18.4,5.6,18.4,5.6,18.4,5.6 C18.4,5.6,18.4,5.6,18.4,5.6C18.4,5.6,18.4,5.6,18.4,5.6C18.4,5.6,18.4,5.6,18.4,5.6z M18.4,5.8C18.4,5.8,18.4,5.8,18.4,5.8 C18.4,5.8,18.4,5.8,18.4,5.8C18.4,5.8,18.4,5.8,18.4,5.8C18.4,5.8,18.4,5.8,18.4,5.8z M18.4,5.5C18.4,5.5,18.4,5.5,18.4,5.5 C18.4,5.5,18.4,5.5,18.4,5.5C18.4,5.5,18.4,5.5,18.4,5.5C18.4,5.5,18.4,5.5,18.4,5.5z M18.4,5.9C18.4,5.9,18.4,6,18.4,5.9 C18.4,6,18.4,5.9,18.4,5.9C18.4,5.9,18.4,5.9,18.4,5.9C18.4,5.9,18.4,5.9,18.4,5.9z M18.3,6.1C18.3,6.1,18.3,6.1,18.3,6.1 C18.3,6.1,18.3,6.1,18.3,6.1C18.4,6.1,18.4,6.1,18.3,6.1C18.4,6.1,18.4,6.1,18.3,6.1z M18.3,5.7C18.3,5.6,18.3,5.6,18.3,5.7 C18.3,5.6,18.3,5.6,18.3,5.7C18.3,5.7,18.3,5.7,18.3,5.7C18.3,5.7,18.3,5.7,18.3,5.7z M18.3,5.4C18.3,5.4,18.3,5.4,18.3,5.4 C18.3,5.4,18.3,5.4,18.3,5.4C18.3,5.4,18.3,5.4,18.3,5.4C18.3,5.4,18.3,5.4,18.3,5.4z M18.3,5.5C18.3,5.5,18.3,5.5,18.3,5.5 C18.3,5.5,18.3,5.5,18.3,5.5C18.3,5.5,18.3,5.5,18.3,5.5C18.3,5.5,18.3,5.5,18.3,5.5z M18.3,5.4C18.3,5.4,18.3,5.4,18.3,5.4 C18.3,5.4,18.3,5.4,18.3,5.4C18.3,5.4,18.3,5.4,18.3,5.4C18.3,5.4,18.3,5.4,18.3,5.4z M18.3,5.3C18.3,5.3,18.3,5.3,18.3,5.3 C18.3,5.3,18.3,5.3,18.3,5.3C18.3,5.3,18.3,5.3,18.3,5.3C18.3,5.3,18.3,5.3,18.3,5.3z M18.3,5.8C18.3,5.8,18.3,5.8,18.3,5.8 C18.3,5.8,18.3,5.8,18.3,5.8C18.3,5.8,18.3,5.8,18.3,5.8C18.3,5.8,18.3,5.8,18.3,5.8z M18.3,5.9C18.3,5.9,18.3,5.9,18.3,5.9 C18.3,5.9,18.3,5.9,18.3,5.9C18.3,5.9,18.3,5.9,18.3,5.9C18.3,5.9,18.3,5.9,18.3,5.9z M18.3,5.5C18.3,5.5,18.3,5.5,18.3,5.5 C18.2,5.5,18.2,5.5,18.3,5.5C18.2,5.5,18.2,5.5,18.3,5.5C18.3,5.5,18.3,5.5,18.3,5.5z M18.3,5.4C18.3,5.4,18.2,5.4,18.3,5.4 C18.2,5.4,18.3,5.4,18.3,5.4C18.3,5.4,18.3,5.4,18.3,5.4C18.3,5.4,18.3,5.4,18.3,5.4z M18.2,5.3C18.2,5.3,18.2,5.3,18.2,5.3 C18.2,5.3,18.2,5.3,18.2,5.3C18.2,5.3,18.2,5.3,18.2,5.3C18.2,5.3,18.2,5.3,18.2,5.3z M18.2,5.6C18.2,5.6,18.2,5.6,18.2,5.6 C18.2,5.6,18.3,5.6,18.2,5.6C18.3,5.6,18.2,5.6,18.2,5.6C18.2,5.6,18.2,5.6,18.2,5.6z M18.2,5.2C18.2,5.2,18.2,5.2,18.2,5.2 C18.2,5.2,18.2,5.2,18.2,5.2C18.2,5.2,18.2,5.2,18.2,5.2C18.2,5.2,18.2,5.2,18.2,5.2z M18.2,5.8C18.2,5.8,18.2,5.8,18.2,5.8 C18.2,5.8,18.2,5.8,18.2,5.8C18.2,5.7,18.2,5.7,18.2,5.8C18.2,5.7,18.2,5.7,18.2,5.8z M18.2,5.2C18.2,5.2,18.2,5.2,18.2,5.2 C18.2,5.2,18.2,5.2,18.2,5.2C18.2,5.2,18.2,5.2,18.2,5.2C18.2,5.2,18.2,5.2,18.2,5.2z M18.2,5.9C18.2,5.9,18.2,5.9,18.2,5.9 C18.2,5.9,18.2,5.9,18.2,5.9C18.2,5.9,18.2,5.9,18.2,5.9C18.2,5.9,18.2,5.9,18.2,5.9z M18.2,5.3C18.2,5.3,18.2,5.3,18.2,5.3 C18.2,5.3,18.2,5.3,18.2,5.3C18.2,5.2,18.2,5.2,18.2,5.3C18.2,5.2,18.2,5.2,18.2,5.3z M18.2,5.3C18.2,5.4,18.2,5.4,18.2,5.3 C18.2,5.4,18.2,5.4,18.2,5.3C18.2,5.3,18.2,5.3,18.2,5.3C18.2,5.3,18.2,5.3,18.2,5.3z M18.2,5.2C18.2,5.2,18.2,5.2,18.2,5.2 C18.2,5.2,18.2,5.2,18.2,5.2C18.2,5.2,18.2,5.2,18.2,5.2C18.2,5.2,18.2,5.2,18.2,5.2z M18.2,5.5C18.2,5.5,18.2,5.5,18.2,5.5 C18.2,5.5,18.2,5.5,18.2,5.5C18.2,5.5,18.2,5.5,18.2,5.5C18.2,5.5,18.2,5.5,18.2,5.5z M18.1,5.1C18.1,5.1,18.1,5.1,18.1,5.1 C18.1,5.1,18.1,5.1,18.1,5.1C18.1,5.1,18.1,5.1,18.1,5.1C18.1,5.1,18.1,5.1,18.1,5.1z M18.1,5.6C18.1,5.6,18.1,5.6,18.1,5.6 C18.2,5.6,18.2,5.6,18.1,5.6C18.2,5.6,18.2,5.6,18.1,5.6C18.1,5.6,18.1,5.6,18.1,5.6z M18.1,5.7C18.1,5.7,18.1,5.8,18.1,5.7 C18.1,5.8,18.1,5.7,18.1,5.7C18.1,5.7,18.1,5.7,18.1,5.7C18.1,5.7,18.1,5.7,18.1,5.7z M18.1,5.1C18.1,5.1,18.1,5.1,18.1,5.1 C18.1,5.1,18.1,5.1,18.1,5.1C18.1,5.1,18.1,5.1,18.1,5.1C18.1,5.1,18.1,5.1,18.1,5.1z M18.1,5.2C18.1,5.2,18.1,5.2,18.1,5.2 C18.1,5.2,18.1,5.2,18.1,5.2C18.1,5.2,18.1,5.2,18.1,5.2C18.1,5.2,18.1,5.2,18.1,5.2z M18.1,5C18.1,5,18.1,5,18.1,5 C18.1,5,18.1,5,18.1,5C18.1,5,18.1,5,18.1,5C18.1,5,18.1,5,18.1,5z M18.1,5.3C18.1,5.3,18.1,5.3,18.1,5.3 C18.1,5.3,18.1,5.3,18.1,5.3C18.1,5.3,18.1,5.3,18.1,5.3C18.1,5.3,18.1,5.3,18.1,5.3z M18.1,5C18.1,5,18.1,5,18.1,5 C18.1,5,18.1,5,18.1,5C18.1,5,18.1,5,18.1,5C18.1,5,18.1,5,18.1,5z M18,5.4C18,5.4,18.1,5.4,18,5.4C18.1,5.4,18.1,5.4,18,5.4 C18.1,5.4,18.1,5.4,18,5.4C18.1,5.4,18,5.4,18,5.4z M18,5.6C18,5.6,18,5.6,18,5.6C18,5.6,18.1,5.6,18,5.6C18.1,5.6,18,5.5,18,5.6 C18,5.5,18,5.6,18,5.6z M18,5.7C18,5.7,18,5.7,18,5.7C18,5.7,18,5.7,18,5.7C18,5.7,18,5.7,18,5.7C18,5.7,18,5.7,18,5.7z M18,5 C18,5,18,5,18,5C18,5,18,5,18,5C18,5,18,5,18,5C18,5,18,5,18,5z M18,5.1C18,5.1,18,5.1,18,5.1C18,5.1,18,5.1,18,5.1 C18,5.1,18,5.1,18,5.1C18,5.1,18,5.1,18,5.1z M18,4.9C18,4.9,18,4.9,18,4.9C18,4.9,18,4.9,18,4.9C18,4.9,18,4.9,18,4.9 C18,4.9,18,4.9,18,4.9z M18,5.2C18,5.2,18,5.2,18,5.2C18,5.2,18,5.2,18,5.2C18,5.2,18,5.2,18,5.2C18,5.2,18,5.2,18,5.2z M18,4.9 C18,4.9,18,4.9,18,4.9L18,4.9C18,4.9,18,4.9,18,4.9C18,4.9,18,4.9,18,4.9z M18,5.3C18,5.3,18,5.3,18,5.3C18,5.3,18,5.3,18,5.3 C18,5.3,18,5.3,18,5.3C18,5.3,18,5.3,18,5.3z M17.9,5.4C17.9,5.4,17.9,5.4,17.9,5.4C18,5.4,18,5.4,17.9,5.4C18,5.4,18,5.4,17.9,5.4 C17.9,5.4,17.9,5.4,17.9,5.4z M17.9,5.5C17.9,5.5,17.9,5.5,17.9,5.5C17.9,5.5,17.9,5.6,17.9,5.5C17.9,5.6,17.9,5.5,17.9,5.5 C17.9,5.5,17.9,5.5,17.9,5.5z M17.9,4.9C17.9,4.9,17.9,4.9,17.9,4.9C17.9,4.9,17.9,4.9,17.9,4.9C17.9,4.9,17.9,4.9,17.9,4.9 C17.9,4.9,17.9,4.9,17.9,4.9z M17.9,4.9C17.9,4.9,17.9,5,17.9,4.9C17.9,5,17.9,4.9,17.9,4.9C17.9,4.9,17.9,4.9,17.9,4.9 C17.9,4.9,17.9,4.9,17.9,4.9z M17.9,4.8C17.9,4.8,17.9,4.8,17.9,4.8C17.9,4.8,17.9,4.8,17.9,4.8C17.9,4.8,17.9,4.8,17.9,4.8 C17.9,4.8,17.9,4.8,17.9,4.8z M17.9,5C17.9,5,17.9,5,17.9,5C17.9,5,17.9,5,17.9,5C17.9,5,17.9,5,17.9,5C17.9,5,17.9,5,17.9,5z M17.9,5.1C17.9,5.1,17.9,5.1,17.9,5.1C17.9,5.1,17.9,5.1,17.9,5.1C17.9,5.1,17.9,5.1,17.9,5.1C17.9,5.1,17.9,5.1,17.9,5.1z M17.8,5.2C17.8,5.2,17.8,5.3,17.8,5.2C17.9,5.3,17.9,5.2,17.8,5.2C17.9,5.2,17.9,5.2,17.8,5.2C17.8,5.2,17.8,5.2,17.8,5.2z M17.8,5.3C17.8,5.3,17.8,5.4,17.8,5.3C17.8,5.4,17.8,5.4,17.8,5.3C17.8,5.4,17.8,5.4,17.8,5.3C17.8,5.4,17.8,5.3,17.8,5.3z M17.8,4.8C17.8,4.8,17.8,4.8,17.8,4.8C17.8,4.8,17.8,4.8,17.8,4.8C17.8,4.8,17.8,4.8,17.8,4.8C17.8,4.8,17.8,4.8,17.8,4.8z M17.8,4.8C17.8,4.8,17.8,4.8,17.8,4.8C17.8,4.8,17.8,4.8,17.8,4.8C17.8,4.8,17.8,4.8,17.8,4.8C17.8,4.8,17.8,4.8,17.8,4.8z M17.8,4.9C17.8,4.9,17.8,4.9,17.8,4.9C17.8,4.9,17.8,4.9,17.8,4.9C17.8,4.9,17.8,4.9,17.8,4.9C17.8,4.9,17.8,4.9,17.8,4.9z M17.8,5 C17.8,5,17.8,5,17.8,5C17.8,5,17.8,5,17.8,5C17.8,5,17.8,5,17.8,5C17.8,5,17.8,5,17.8,5z M17.7,5.1C17.7,5.1,17.7,5.1,17.7,5.1 C17.8,5.1,17.8,5.1,17.7,5.1C17.8,5.1,17.8,5.1,17.7,5.1C17.7,5.1,17.7,5.1,17.7,5.1z M17.7,5.2C17.7,5.2,17.7,5.2,17.7,5.2 C17.7,5.2,17.7,5.2,17.7,5.2C17.7,5.2,17.7,5.2,17.7,5.2C17.7,5.2,17.7,5.2,17.7,5.2z M17.7,4.7C17.7,4.7,17.7,4.7,17.7,4.7 C17.7,4.7,17.7,4.7,17.7,4.7C17.7,4.7,17.7,4.7,17.7,4.7C17.7,4.7,17.7,4.7,17.7,4.7z M17.7,4.7C17.7,4.7,17.7,4.7,17.7,4.7 C17.7,4.7,17.7,4.7,17.7,4.7C17.7,4.7,17.7,4.7,17.7,4.7C17.7,4.7,17.7,4.7,17.7,4.7z M17.7,4.8C17.7,4.8,17.7,4.8,17.7,4.8 C17.7,4.8,17.7,4.8,17.7,4.8C17.7,4.8,17.7,4.8,17.7,4.8C17.7,4.8,17.7,4.8,17.7,4.8z M17.7,4.9C17.7,4.9,17.7,4.9,17.7,4.9 C17.7,4.9,17.7,4.9,17.7,4.9C17.7,4.9,17.7,4.8,17.7,4.9C17.7,4.8,17.7,4.9,17.7,4.9z M17.6,4.9C17.6,5,17.6,5,17.6,4.9 C17.7,5,17.7,5,17.6,4.9C17.7,4.9,17.7,4.9,17.6,4.9C17.6,4.9,17.6,4.9,17.6,4.9z M17.6,4.6C17.6,4.6,17.6,4.6,17.6,4.6 C17.6,4.6,17.6,4.6,17.6,4.6C17.6,4.6,17.6,4.6,17.6,4.6C17.6,4.6,17.6,4.6,17.6,4.6z M17.6,5.1C17.6,5.1,17.6,5.1,17.6,5.1 C17.6,5.1,17.6,5.1,17.6,5.1C17.6,5,17.6,5,17.6,5.1C17.6,5,17.6,5,17.6,5.1z M17.6,5.2C17.6,5.2,17.6,5.1,17.6,5.2 C17.6,5.1,17.6,5.2,17.6,5.2C17.6,5.2,17.6,5.2,17.6,5.2C17.6,5.2,17.6,5.2,17.6,5.2z M17.6,4.7C17.6,4.7,17.6,4.7,17.6,4.7 C17.6,4.7,17.6,4.7,17.6,4.7C17.6,4.7,17.6,4.7,17.6,4.7C17.6,4.7,17.6,4.7,17.6,4.7z M17.6,4.7C17.6,4.7,17.6,4.8,17.6,4.7 C17.6,4.8,17.6,4.7,17.6,4.7C17.6,4.7,17.6,4.7,17.6,4.7C17.6,4.7,17.6,4.7,17.6,4.7z M17.5,4.8C17.5,4.8,17.5,4.8,17.5,4.8 C17.6,4.8,17.6,4.8,17.5,4.8C17.6,4.8,17.6,4.8,17.5,4.8C17.5,4.8,17.5,4.8,17.5,4.8z M17.5,4.6C17.5,4.6,17.5,4.6,17.5,4.6 C17.5,4.6,17.5,4.6,17.5,4.6C17.5,4.6,17.5,4.6,17.5,4.6C17.5,4.6,17.5,4.6,17.5,4.6z M17.5,4.9C17.5,4.9,17.5,4.9,17.5,4.9 C17.5,4.9,17.5,4.9,17.5,4.9C17.5,4.9,17.5,4.9,17.5,4.9C17.5,4.9,17.5,4.9,17.5,4.9z M17.5,5.3C17.5,5.3,17.5,5.3,17.5,5.3 C17.5,5.3,17.6,5.3,17.5,5.3C17.6,5.3,17.5,5.3,17.5,5.3C17.5,5.3,17.5,5.3,17.5,5.3z M17.5,4.6C17.5,4.6,17.5,4.6,17.5,4.6 C17.5,4.6,17.5,4.6,17.5,4.6C17.5,4.6,17.5,4.6,17.5,4.6C17.5,4.6,17.5,4.6,17.5,4.6z M17.5,5C17.5,5,17.5,5,17.5,5 C17.5,5,17.4,5,17.5,5C17.4,5,17.5,5,17.5,5C17.5,5,17.5,5,17.5,5z M17.5,4.6C17.5,4.6,17.5,4.6,17.5,4.6 C17.5,4.6,17.5,4.6,17.5,4.6C17.5,4.6,17.5,4.6,17.5,4.6C17.5,4.6,17.5,4.6,17.5,4.6z M17.4,4.7C17.4,4.7,17.4,4.7,17.4,4.7 C17.4,4.7,17.4,4.7,17.4,4.7C17.4,4.7,17.4,4.7,17.4,4.7C17.4,4.7,17.4,4.7,17.4,4.7z M17.4,4.8C17.4,4.8,17.4,4.8,17.4,4.8 C17.4,4.8,17.4,4.8,17.4,4.8C17.4,4.8,17.4,4.8,17.4,4.8C17.4,4.8,17.4,4.8,17.4,4.8z M17.4,4.5C17.4,4.5,17.4,4.5,17.4,4.5 C17.4,4.5,17.4,4.5,17.4,4.5C17.4,4.5,17.4,4.5,17.4,4.5C17.4,4.5,17.4,4.5,17.4,4.5z M17.4,5.3C17.4,5.3,17.4,5.2,17.4,5.3 C17.3,5.2,17.3,5.3,17.4,5.3C17.3,5.3,17.3,5.3,17.4,5.3C17.4,5.3,17.4,5.3,17.4,5.3z M17.4,4.6C17.4,4.6,17.4,4.6,17.4,4.6 C17.4,4.6,17.4,4.6,17.4,4.6C17.4,4.6,17.4,4.6,17.4,4.6C17.4,4.6,17.4,4.6,17.4,4.6z M17.4,4.9C17.4,4.9,17.3,4.9,17.4,4.9 C17.3,4.9,17.4,4.9,17.4,4.9C17.4,4.9,17.4,4.9,17.4,4.9C17.4,4.9,17.4,4.9,17.4,4.9z M17.3,4.6C17.3,4.6,17.3,4.6,17.3,4.6 C17.3,4.6,17.3,4.6,17.3,4.6C17.3,4.6,17.3,4.6,17.3,4.6C17.3,4.6,17.3,4.6,17.3,4.6z M17.3,4.7C17.3,4.7,17.3,4.7,17.3,4.7 C17.3,4.7,17.3,4.7,17.3,4.7C17.3,4.7,17.3,4.7,17.3,4.7C17.3,4.7,17.3,4.7,17.3,4.7z M17.3,5C17.3,5,17.3,5,17.3,5 C17.3,5,17.3,5,17.3,5C17.3,5,17.3,5,17.3,5C17.3,5,17.3,5,17.3,5z M17.3,4.5C17.3,4.5,17.3,4.5,17.3,4.5 C17.3,4.5,17.3,4.5,17.3,4.5C17.3,4.5,17.3,4.5,17.3,4.5C17.3,4.5,17.3,4.5,17.3,4.5z M17.3,4.7C17.2,4.7,17.2,4.7,17.3,4.7 C17.2,4.8,17.2,4.8,17.3,4.7C17.3,4.8,17.3,4.8,17.3,4.7C17.3,4.7,17.3,4.7,17.3,4.7z M17.2,4.5C17.2,4.5,17.2,4.5,17.2,4.5 C17.2,4.5,17.2,4.5,17.2,4.5C17.2,4.5,17.2,4.5,17.2,4.5C17.2,4.5,17.2,4.5,17.2,4.5z M17.2,5.1C17.2,5.1,17.2,5.1,17.2,5.1 C17.3,5.1,17.3,5.1,17.2,5.1C17.3,5.1,17.3,5.1,17.2,5.1C17.2,5.1,17.2,5.1,17.2,5.1z M17.2,4.6C17.2,4.6,17.2,4.6,17.2,4.6 C17.2,4.6,17.2,4.6,17.2,4.6C17.2,4.6,17.2,4.6,17.2,4.6C17.2,4.6,17.2,4.6,17.2,4.6z M17.2,4.9C17.2,4.9,17.2,4.9,17.2,4.9 C17.2,4.9,17.2,4.9,17.2,4.9C17.2,4.8,17.2,4.8,17.2,4.9C17.2,4.8,17.2,4.8,17.2,4.9z M17.2,5.2C17.2,5.2,17.1,5.2,17.2,5.2 C17.1,5.3,17.2,5.3,17.2,5.2C17.2,5.3,17.2,5.3,17.2,5.2C17.2,5.2,17.2,5.2,17.2,5.2z M17.2,4.4C17.2,4.4,17.2,4.4,17.2,4.4 C17.2,4.4,17.2,4.4,17.2,4.4L17.2,4.4L17.2,4.4z M17.2,4.6C17.1,4.6,17.1,4.6,17.2,4.6C17.1,4.7,17.1,4.7,17.2,4.6 C17.2,4.7,17.2,4.7,17.2,4.6C17.2,4.6,17.2,4.6,17.2,4.6z M17.1,4.5C17.1,4.5,17.1,4.5,17.1,4.5C17.1,4.5,17.1,4.5,17.1,4.5 C17.1,4.5,17.1,4.5,17.1,4.5C17.1,4.5,17.1,4.5,17.1,4.5z M17.1,5C17.1,5,17.1,5,17.1,5C17.2,5,17.2,5,17.1,5 C17.2,5,17.2,4.9,17.1,5C17.1,4.9,17.1,5,17.1,5z M17.1,4.5C17.1,4.5,17.1,4.5,17.1,4.5C17.1,4.5,17.1,4.5,17.1,4.5 C17.1,4.5,17.1,4.5,17.1,4.5C17.1,4.5,17.1,4.5,17.1,4.5z M17.1,4.7C17.1,4.7,17.1,4.7,17.1,4.7C17.1,4.7,17.1,4.7,17.1,4.7 C17.1,4.7,17.1,4.7,17.1,4.7C17.1,4.7,17.1,4.7,17.1,4.7z M17.1,5.1C17.1,5.1,17,5.1,17.1,5.1C17,5.1,17.1,5.1,17.1,5.1 C17.1,5.1,17.1,5.1,17.1,5.1C17.1,5.1,17.1,5.1,17.1,5.1z M17,4.6C17,4.6,17.1,4.6,17,4.6C17.1,4.6,17.1,4.6,17,4.6 C17.1,4.5,17.1,4.5,17,4.6C17.1,4.5,17,4.5,17,4.6z M17,4.8C17,4.8,17,4.9,17,4.8C17,4.9,17.1,4.8,17,4.8C17.1,4.8,17,4.8,17,4.8 C17,4.8,17,4.8,17,4.8z M17,4.4C17,4.4,17,4.4,17,4.4C17,4.4,17,4.4,17,4.4C17,4.4,17,4.4,17,4.4C17,4.4,17,4.4,17,4.4z M17,4.6 C17,4.6,17,4.6,17,4.6C17,4.6,17,4.6,17,4.6C17,4.6,17,4.6,17,4.6C17,4.6,17,4.6,17,4.6z M17,4.5C17,4.5,17,4.5,17,4.5 C17,4.5,17,4.5,17,4.5C17,4.5,17,4.5,17,4.5C17,4.5,17,4.5,17,4.5z M16.9,4.7C16.9,4.7,16.9,4.7,16.9,4.7 C16.9,4.7,16.9,4.7,16.9,4.7C16.9,4.7,16.9,4.7,16.9,4.7C16.9,4.7,16.9,4.7,16.9,4.7z M16.9,4.5C16.9,4.5,16.9,4.5,16.9,4.5 C16.9,4.5,16.9,4.5,16.9,4.5C16.9,4.5,16.9,4.5,16.9,4.5C16.9,4.5,16.9,4.5,16.9,4.5z M16.9,5.1C16.9,5.1,16.9,5.1,16.9,5.1 C16.9,5.1,16.9,5.1,16.9,5.1C16.9,5.1,16.9,5.1,16.9,5.1C16.9,5.1,16.9,5.1,16.9,5.1z M16.9,4.8C16.9,4.8,16.8,4.8,16.9,4.8 C16.8,4.8,16.9,4.8,16.9,4.8C16.9,4.8,16.9,4.8,16.9,4.8C16.9,4.8,16.9,4.8,16.9,4.8z M16.8,4.6C16.8,4.6,16.8,4.6,16.8,4.6 C16.8,4.6,16.8,4.6,16.8,4.6C16.8,4.6,16.8,4.6,16.8,4.6C16.8,4.6,16.8,4.6,16.8,4.6z M16.8,4.5C16.8,4.5,16.8,4.5,16.8,4.5 C16.8,4.5,16.8,4.5,16.8,4.5C16.8,4.5,16.8,4.5,16.8,4.5C16.8,4.5,16.8,4.5,16.8,4.5z M16.8,4.9C16.8,4.9,16.8,4.9,16.8,4.9 C16.8,5,16.8,5,16.8,4.9C16.8,5,16.8,5,16.8,4.9C16.8,4.9,16.8,4.9,16.8,4.9z M16.8,4.7C16.8,4.7,16.7,4.7,16.8,4.7 C16.7,4.7,16.8,4.7,16.8,4.7C16.8,4.7,16.8,4.7,16.8,4.7C16.8,4.7,16.8,4.7,16.8,4.7z M16.7,4.5C16.7,4.5,16.7,4.5,16.7,4.5 C16.8,4.5,16.8,4.5,16.7,4.5C16.8,4.5,16.8,4.5,16.7,4.5C16.7,4.5,16.7,4.5,16.7,4.5z M16.7,5C16.7,5,16.7,5.1,16.7,5 C16.7,5.1,16.7,5.1,16.7,5C16.7,5.1,16.7,5.1,16.7,5C16.7,5.1,16.7,5,16.7,5z M16.7,4.8C16.7,4.8,16.7,4.8,16.7,4.8 C16.7,4.8,16.7,4.8,16.7,4.8C16.7,4.8,16.7,4.8,16.7,4.8C16.7,4.8,16.7,4.8,16.7,4.8z M16.7,4.6C16.7,4.6,16.7,4.6,16.7,4.6 C16.7,4.6,16.7,4.6,16.7,4.6C16.7,4.6,16.7,4.6,16.7,4.6C16.7,4.6,16.7,4.6,16.7,4.6z M16.7,4.5C16.7,4.5,16.7,4.5,16.7,4.5 C16.7,4.5,16.7,4.5,16.7,4.5C16.7,4.4,16.7,4.4,16.7,4.5C16.7,4.4,16.7,4.4,16.7,4.5z M16.7,5.4C16.7,5.4,16.7,5.4,16.7,5.4 C16.7,5.4,16.7,5.4,16.7,5.4C16.7,5.4,16.7,5.4,16.7,5.4C16.7,5.4,16.7,5.4,16.7,5.4z M16.7,5.8C16.7,5.8,16.7,5.8,16.7,5.8 c0.1,0.1,0.1,0,0.1,0S16.7,5.7,16.7,5.8C16.7,5.7,16.7,5.7,16.7,5.8z M16.6,4.5C16.6,4.5,16.6,4.5,16.6,4.5 C16.6,4.5,16.6,4.5,16.6,4.5C16.6,4.5,16.6,4.5,16.6,4.5C16.6,4.5,16.6,4.5,16.6,4.5z M16.6,4.7C16.6,4.7,16.6,4.7,16.6,4.7 C16.6,4.7,16.6,4.7,16.6,4.7C16.6,4.7,16.6,4.7,16.6,4.7C16.6,4.7,16.6,4.7,16.6,4.7z M16.6,4.9C16.6,4.9,16.6,5,16.6,4.9 C16.6,5,16.6,4.9,16.6,4.9C16.6,4.9,16.6,4.9,16.6,4.9C16.6,4.9,16.6,4.9,16.6,4.9z M16.6,5.2C16.6,5.2,16.6,5.3,16.6,5.2 C16.6,5.3,16.6,5.2,16.6,5.2C16.6,5.2,16.6,5.2,16.6,5.2C16.6,5.2,16.6,5.2,16.6,5.2z M16.6,5.6C16.6,5.6,16.6,5.6,16.6,5.6 C16.6,5.6,16.6,5.6,16.6,5.6C16.6,5.6,16.6,5.5,16.6,5.6C16.6,5.5,16.6,5.6,16.6,5.6z M16.5,5.8C16.5,5.7,16.5,5.7,16.5,5.8 c-0.1-0.1-0.1,0-0.1,0C16.4,5.8,16.5,5.8,16.5,5.8C16.5,5.8,16.5,5.8,16.5,5.8z M16.5,4.5C16.5,4.5,16.5,4.5,16.5,4.5 C16.5,4.5,16.5,4.5,16.5,4.5C16.5,4.4,16.5,4.4,16.5,4.5C16.5,4.4,16.5,4.4,16.5,4.5z M16.5,4.6C16.5,4.6,16.5,4.6,16.5,4.6 C16.5,4.6,16.5,4.6,16.5,4.6C16.5,4.6,16.5,4.6,16.5,4.6C16.5,4.6,16.5,4.6,16.5,4.6z M16.5,4.8C16.5,4.8,16.5,4.8,16.5,4.8 C16.5,4.8,16.5,4.8,16.5,4.8C16.5,4.8,16.5,4.8,16.5,4.8C16.5,4.8,16.5,4.8,16.5,4.8z M16.5,5.1C16.5,5.1,16.5,5.1,16.5,5.1 C16.5,5.1,16.5,5.1,16.5,5.1C16.5,5.1,16.5,5,16.5,5.1C16.5,5,16.5,5.1,16.5,5.1z M16.5,5.4C16.5,5.4,16.5,5.4,16.5,5.4 C16.5,5.4,16.5,5.4,16.5,5.4C16.5,5.4,16.5,5.4,16.5,5.4C16.5,5.4,16.5,5.4,16.5,5.4z M16.4,4.5C16.4,4.5,16.4,4.5,16.4,4.5 C16.4,4.5,16.4,4.5,16.4,4.5C16.4,4.5,16.4,4.5,16.4,4.5C16.4,4.5,16.4,4.5,16.4,4.5z M16.4,4.7C16.4,4.7,16.4,4.7,16.4,4.7 C16.4,4.7,16.4,4.7,16.4,4.7C16.4,4.7,16.4,4.7,16.4,4.7C16.4,4.7,16.4,4.7,16.4,4.7z M16.4,4.9C16.4,4.9,16.4,5,16.4,4.9 C16.4,5,16.4,4.9,16.4,4.9C16.4,4.9,16.4,4.9,16.4,4.9C16.4,4.9,16.4,4.9,16.4,4.9z M16.4,4.5C16.4,4.5,16.4,4.5,16.4,4.5 C16.4,4.5,16.4,4.5,16.4,4.5C16.4,4.5,16.4,4.5,16.4,4.5C16.4,4.5,16.4,4.5,16.4,4.5z M16.3,4.6C16.3,4.6,16.3,4.6,16.3,4.6 C16.4,4.6,16.4,4.6,16.3,4.6C16.4,4.6,16.4,4.6,16.3,4.6C16.3,4.6,16.3,4.6,16.3,4.6z M16.3,4.8C16.3,4.8,16.3,4.8,16.3,4.8 C16.3,4.8,16.3,4.8,16.3,4.8C16.3,4.8,16.3,4.8,16.3,4.8C16.3,4.8,16.3,4.8,16.3,4.8z M16.3,4.5C16.3,4.5,16.3,4.5,16.3,4.5 C16.3,4.5,16.3,4.5,16.3,4.5C16.3,4.5,16.3,4.5,16.3,4.5C16.3,4.5,16.3,4.5,16.3,4.5z M16.2,4.7C16.2,4.7,16.2,4.7,16.2,4.7 C16.3,4.7,16.3,4.7,16.2,4.7C16.3,4.7,16.3,4.7,16.2,4.7C16.2,4.7,16.2,4.7,16.2,4.7z M16.2,4.5C16.2,4.5,16.2,4.5,16.2,4.5 C16.2,4.5,16.2,4.5,16.2,4.5C16.2,4.5,16.2,4.5,16.2,4.5C16.2,4.5,16.2,4.5,16.2,4.5z M16.2,4.9C16.2,5,16.2,5,16.2,4.9 C16.2,5,16.2,5,16.2,4.9C16.2,4.9,16.2,4.9,16.2,4.9C16.2,4.9,16.2,4.9,16.2,4.9z M16.2,5.2C16.2,5.2,16.2,5.2,16.2,5.2 C16.2,5.3,16.2,5.3,16.2,5.2C16.2,5.3,16.2,5.3,16.2,5.2C16.2,5.2,16.2,5.2,16.2,5.2z M16.2,4.6C16.2,4.6,16.2,4.6,16.2,4.6 C16.2,4.6,16.2,4.6,16.2,4.6C16.2,4.6,16.2,4.6,16.2,4.6C16.2,4.6,16.2,4.6,16.2,4.6z M16.2,4.4C16.2,4.4,16.2,4.4,16.2,4.4 C16.2,4.4,16.2,4.4,16.2,4.4C16.2,4.4,16.2,4.4,16.2,4.4C16.2,4.4,16.2,4.4,16.2,4.4z M16.1,4.8C16.1,4.8,16.1,4.8,16.1,4.8 C16.2,4.8,16.2,4.8,16.1,4.8C16.2,4.8,16.2,4.8,16.1,4.8C16.1,4.8,16.1,4.8,16.1,4.8z M16.1,4.5C16.1,4.6,16.1,4.6,16.1,4.5 C16.1,4.6,16.1,4.6,16.1,4.5C16.1,4.5,16.1,4.5,16.1,4.5C16.1,4.5,16.1,4.5,16.1,4.5z M16.1,4.7C16.1,4.7,16.1,4.7,16.1,4.7 C16.1,4.7,16.1,4.7,16.1,4.7C16.1,4.7,16.1,4.7,16.1,4.7C16.1,4.7,16.1,4.7,16.1,4.7z M16.1,4.5C16.1,4.5,16.1,4.5,16.1,4.5 C16.1,4.5,16.1,4.5,16.1,4.5C16.1,4.5,16.1,4.5,16.1,4.5C16.1,4.5,16.1,4.5,16.1,4.5z M16,4.9C16,4.9,16,5,16,4.9C16,5,16,5,16,4.9 C16.1,5,16.1,5,16,4.9C16.1,5,16.1,4.9,16,4.9z M16,4.4C16,4.4,16,4.4,16,4.4C16,4.4,16,4.4,16,4.4C16,4.4,16,4.4,16,4.4 C16,4.4,16,4.4,16,4.4z M16,4.6C16,4.6,16,4.6,16,4.6C16,4.6,16,4.6,16,4.6C16,4.6,16,4.6,16,4.6C16,4.6,16,4.6,16,4.6z M16,5.2 C16,5.2,16,5.2,16,5.2C16,5.3,16,5.3,16,5.2C16,5.3,16,5.3,16,5.2C16,5.2,16,5.2,16,5.2z M16,4.6C16,4.6,16,4.6,16,4.6 C16,4.6,16,4.6,16,4.6C16,4.6,16,4.6,16,4.6C16,4.6,16,4.6,16,4.6z M16,4.8C16,4.9,16,4.9,16,4.8C16,4.9,16,4.9,16,4.8 C16,4.8,16,4.8,16,4.8C16,4.8,16,4.8,16,4.8z M15.9,4.5C15.9,4.5,15.9,4.5,15.9,4.5C15.9,4.5,15.9,4.5,15.9,4.5 C15.9,4.5,15.9,4.5,15.9,4.5C15.9,4.5,15.9,4.5,15.9,4.5z M15.9,4.7C15.9,4.8,15.9,4.8,15.9,4.7C15.9,4.8,15.9,4.8,15.9,4.7 C15.9,4.7,15.9,4.7,15.9,4.7C15.9,4.7,15.9,4.7,15.9,4.7z M15.9,5.1C15.9,5.1,15.9,5.1,15.9,5.1C16,5.1,16,5.1,15.9,5.1 C16,5.1,16,5.1,15.9,5.1C15.9,5.1,15.9,5.1,15.9,5.1z M15.9,4.5C15.9,4.5,15.9,4.5,15.9,4.5C15.9,4.5,15.9,4.5,15.9,4.5 C15.9,4.5,15.9,4.5,15.9,4.5C15.9,4.5,15.9,4.5,15.9,4.5z M15.9,5.4C15.9,5.4,15.9,5.4,15.9,5.4C15.9,5.4,15.9,5.5,15.9,5.4 C15.9,5.5,15.9,5.4,15.9,5.4C15.9,5.4,15.9,5.4,15.9,5.4z M15.9,4.7C15.9,4.7,15.9,4.7,15.9,4.7C15.9,4.7,15.9,4.7,15.9,4.7 C15.9,4.7,15.9,4.7,15.9,4.7C15.9,4.7,15.9,4.7,15.9,4.7z M15.9,5C15.9,5,15.9,5,15.9,5C15.9,5,15.9,5,15.9,5C15.9,5,15.9,5,15.9,5 C15.9,5,15.9,5,15.9,5z M15.9,5.3C15.9,5.3,15.8,5.2,15.9,5.3C15.8,5.2,15.8,5.3,15.9,5.3C15.8,5.3,15.8,5.3,15.9,5.3 C15.8,5.3,15.9,5.3,15.9,5.3z M15.8,4.6C15.8,4.6,15.8,4.6,15.8,4.6C15.8,4.6,15.8,4.6,15.8,4.6C15.8,4.6,15.8,4.6,15.8,4.6 C15.8,4.6,15.8,4.6,15.8,4.6z M15.8,4.9C15.8,4.9,15.8,4.9,15.8,4.9C15.8,4.9,15.8,4.9,15.8,4.9C15.8,4.9,15.8,4.9,15.8,4.9 C15.8,4.9,15.8,4.9,15.8,4.9z M15.8,4.5C15.8,4.5,15.8,4.5,15.8,4.5C15.8,4.5,15.8,4.5,15.8,4.5C15.8,4.5,15.8,4.5,15.8,4.5 C15.8,4.5,15.8,4.5,15.8,4.5z M15.8,4.5C15.8,4.5,15.8,4.5,15.8,4.5C15.8,4.5,15.8,4.5,15.8,4.5C15.8,4.5,15.8,4.5,15.8,4.5 C15.8,4.5,15.8,4.5,15.8,4.5z M15.8,4.8C15.8,4.8,15.8,4.8,15.8,4.8C15.8,4.8,15.8,4.8,15.8,4.8C15.8,4.8,15.8,4.8,15.8,4.8 C15.8,4.8,15.8,4.8,15.8,4.8z M15.7,5.1C15.7,5.1,15.8,5.2,15.7,5.1C15.8,5.2,15.8,5.1,15.7,5.1C15.8,5.1,15.8,5.1,15.7,5.1 C15.8,5.1,15.7,5.1,15.7,5.1z M15.7,4.7C15.7,4.7,15.7,4.7,15.7,4.7C15.7,4.7,15.7,4.7,15.7,4.7C15.7,4.7,15.7,4.7,15.7,4.7 C15.7,4.7,15.7,4.7,15.7,4.7z M15.7,4.6C15.7,4.6,15.7,4.6,15.7,4.6C15.7,4.6,15.7,4.6,15.7,4.6C15.7,4.6,15.7,4.6,15.7,4.6 C15.7,4.6,15.7,4.6,15.7,4.6z M15.7,5C15.7,5,15.7,5,15.7,5C15.7,5,15.7,5,15.7,5C15.7,5,15.7,5,15.7,5C15.7,5,15.7,5,15.7,5z M15.7,5.5C15.7,5.5,15.7,5.5,15.7,5.5C15.7,5.5,15.8,5.5,15.7,5.5C15.8,5.4,15.7,5.4,15.7,5.5C15.7,5.4,15.7,5.4,15.7,5.5z M15.7,5.3C15.7,5.3,15.7,5.3,15.7,5.3C15.6,5.3,15.6,5.3,15.7,5.3C15.6,5.3,15.6,5.3,15.7,5.3C15.7,5.3,15.7,5.3,15.7,5.3z M15.7,4.6C15.7,4.6,15.7,4.6,15.7,4.6C15.7,4.6,15.7,4.6,15.7,4.6C15.7,4.6,15.7,4.6,15.7,4.6C15.7,4.6,15.7,4.6,15.7,4.6z M15.7,4.9C15.7,4.9,15.7,4.9,15.7,4.9C15.7,4.9,15.7,4.9,15.7,4.9C15.7,4.9,15.7,4.9,15.7,4.9C15.7,4.9,15.7,4.9,15.7,4.9z M15.6,4.8C15.6,4.8,15.6,4.8,15.6,4.8C15.6,4.8,15.6,4.8,15.6,4.8C15.6,4.8,15.6,4.8,15.6,4.8C15.6,4.8,15.6,4.8,15.6,4.8z M15.6,4.7C15.6,4.7,15.6,4.7,15.6,4.7C15.6,4.7,15.6,4.7,15.6,4.7C15.6,4.7,15.6,4.7,15.6,4.7C15.6,4.7,15.6,4.7,15.6,4.7z M15.6,5.2C15.6,5.2,15.6,5.2,15.6,5.2C15.6,5.2,15.6,5.2,15.6,5.2C15.6,5.2,15.6,5.1,15.6,5.2C15.6,5.1,15.6,5.2,15.6,5.2z M15.6,4.7C15.6,4.7,15.6,4.7,15.6,4.7C15.6,4.7,15.6,4.7,15.6,4.7C15.6,4.7,15.6,4.7,15.6,4.7C15.6,4.7,15.6,4.7,15.6,4.7z M15.6,4.6C15.6,4.6,15.6,4.6,15.6,4.6C15.6,4.6,15.6,4.6,15.6,4.6C15.6,4.6,15.6,4.6,15.6,4.6C15.6,4.6,15.6,4.6,15.6,4.6z M15.6,5 C15.6,5,15.6,5.1,15.6,5C15.6,5.1,15.6,5,15.6,5C15.6,5,15.6,5,15.6,5C15.6,5,15.6,5,15.6,5z M15.5,4.9C15.5,4.9,15.5,4.9,15.5,4.9 C15.5,4.9,15.5,4.9,15.5,4.9C15.5,4.9,15.5,4.9,15.5,4.9C15.5,4.9,15.5,4.9,15.5,4.9z M15.5,4.8C15.5,4.9,15.5,4.9,15.5,4.8 C15.5,4.9,15.5,4.9,15.5,4.8C15.5,4.8,15.5,4.8,15.5,4.8C15.5,4.8,15.5,4.8,15.5,4.8z M15.5,4.8C15.5,4.8,15.5,4.8,15.5,4.8 C15.5,4.8,15.5,4.8,15.5,4.8C15.5,4.8,15.5,4.8,15.5,4.8C15.5,4.8,15.5,4.8,15.5,4.8z M15.5,4.7C15.5,4.7,15.5,4.7,15.5,4.7 C15.5,4.7,15.5,4.7,15.5,4.7C15.5,4.7,15.5,4.7,15.5,4.7C15.5,4.7,15.5,4.7,15.5,4.7z M15.4,5.2C15.4,5.2,15.4,5.2,15.4,5.2 C15.5,5.2,15.5,5.2,15.4,5.2C15.5,5.2,15.5,5.2,15.4,5.2C15.4,5.2,15.4,5.2,15.4,5.2z M15.4,5.1C15.4,5.1,15.4,5.1,15.4,5.1 C15.4,5.1,15.4,5.1,15.4,5.1C15.4,5.1,15.4,5.1,15.4,5.1C15.4,5.1,15.4,5.1,15.4,5.1z M15.4,5C15.4,5,15.4,5,15.4,5 C15.4,5,15.4,5,15.4,5C15.4,5,15.4,5,15.4,5C15.4,5,15.4,5,15.4,5z M15.4,4.9C15.4,4.9,15.4,4.9,15.4,4.9 C15.4,4.9,15.4,4.9,15.4,4.9C15.4,4.9,15.4,4.9,15.4,4.9C15.4,4.9,15.4,4.9,15.4,4.9z M15.4,4.8C15.4,4.8,15.4,4.8,15.4,4.8 C15.4,4.8,15.4,4.8,15.4,4.8C15.4,4.8,15.4,4.8,15.4,4.8C15.4,4.8,15.4,4.8,15.4,4.8z M15.4,4.8C15.4,4.8,15.4,4.8,15.4,4.8 C15.4,4.8,15.4,4.8,15.4,4.8C15.4,4.8,15.4,4.8,15.4,4.8L15.4,4.8z M15.3,5.4C15.3,5.4,15.3,5.4,15.3,5.4 C15.4,5.4,15.4,5.4,15.3,5.4C15.4,5.3,15.4,5.3,15.3,5.4C15.3,5.3,15.3,5.3,15.3,5.4z M15.3,5.2C15.3,5.2,15.3,5.2,15.3,5.2 C15.3,5.2,15.3,5.2,15.3,5.2C15.3,5.2,15.3,5.2,15.3,5.2C15.3,5.2,15.3,5.2,15.3,5.2z M15.3,5.1C15.3,5.1,15.3,5.1,15.3,5.1 C15.3,5.1,15.3,5.1,15.3,5.1C15.3,5.1,15.3,5.1,15.3,5.1C15.3,5.1,15.3,5.1,15.3,5.1z M15.3,5C15.3,5,15.3,5,15.3,5 C15.3,5,15.3,5,15.3,5C15.3,5,15.3,5,15.3,5C15.3,5,15.3,5,15.3,5z M15.3,4.9C15.3,4.9,15.3,4.9,15.3,4.9 C15.3,4.9,15.3,4.9,15.3,4.9C15.3,4.9,15.3,4.9,15.3,4.9C15.3,4.9,15.3,4.9,15.3,4.9z M15.3,4.9C15.3,4.9,15.3,4.9,15.3,4.9 C15.3,4.9,15.3,4.9,15.3,4.9C15.3,4.9,15.3,4.9,15.3,4.9C15.3,4.9,15.3,4.9,15.3,4.9z M15.2,5.5C15.2,5.5,15.2,5.5,15.2,5.5 C15.3,5.5,15.3,5.5,15.2,5.5C15.3,5.5,15.3,5.5,15.2,5.5C15.2,5.5,15.2,5.5,15.2,5.5z M15.2,5.9C15.2,5.9,15.2,5.8,15.2,5.9 C15.2,5.8,15.2,5.9,15.2,5.9C15.2,5.9,15.2,5.9,15.2,5.9C15.2,5.9,15.2,5.9,15.2,5.9z M15.2,5.4C15.2,5.4,15.2,5.4,15.2,5.4 C15.2,5.4,15.2,5.4,15.2,5.4C15.2,5.4,15.2,5.4,15.2,5.4C15.2,5.4,15.2,5.4,15.2,5.4z M15.2,5.3C15.2,5.3,15.2,5.3,15.2,5.3 C15.2,5.3,15.2,5.3,15.2,5.3C15.2,5.3,15.2,5.3,15.2,5.3C15.2,5.3,15.2,5.3,15.2,5.3z M15.2,5.1C15.2,5.1,15.2,5.1,15.2,5.1 C15.2,5.2,15.2,5.2,15.2,5.1C15.2,5.2,15.2,5.2,15.2,5.1C15.2,5.1,15.2,5.1,15.2,5.1z M15.2,4.9C15.2,4.9,15.2,4.9,15.2,4.9 C15.2,4.9,15.2,4.9,15.2,4.9C15.2,4.9,15.2,4.9,15.2,4.9C15.2,4.9,15.2,4.9,15.2,4.9z M15.2,5C15.2,5,15.2,5,15.2,5 C15.2,5,15.2,5,15.2,5C15.2,5,15.2,5,15.2,5C15.2,5,15.2,5,15.2,5z M15.2,5.1C15.2,5.1,15.2,5.1,15.2,5.1 C15.2,5.1,15.2,5.1,15.2,5.1C15.2,5.1,15.2,5.1,15.2,5.1C15.2,5.1,15.2,5.1,15.2,5.1z M15.2,5.7C15.2,5.7,15.2,5.7,15.2,5.7 C15.2,5.7,15.2,5.7,15.2,5.7C15.2,5.7,15.2,5.7,15.2,5.7C15.2,5.7,15.2,5.7,15.2,5.7z M15.1,5.6C15.1,5.6,15.1,5.6,15.1,5.6 C15.1,5.6,15.1,5.6,15.1,5.6C15.1,5.5,15.1,5.5,15.1,5.6C15.1,5.5,15.1,5.5,15.1,5.6z M15.1,5.4C15.1,5.4,15.1,5.4,15.1,5.4 C15.1,5.4,15.1,5.4,15.1,5.4C15.1,5.4,15.1,5.4,15.1,5.4C15.1,5.4,15.1,5.4,15.1,5.4z M15.1,5.3C15.1,5.3,15.1,5.3,15.1,5.3 C15.1,5.3,15.1,5.3,15.1,5.3C15.1,5.3,15.1,5.3,15.1,5.3C15.1,5.3,15.1,5.3,15.1,5.3z M15.1,5L15.1,5L15.1,5C15.1,5,15.1,5,15.1,5 C15.1,5,15.1,5,15.1,5z M15.1,5.1C15.1,5.1,15.1,5.1,15.1,5.1C15.1,5.1,15.1,5.1,15.1,5.1C15.1,5.1,15.1,5.1,15.1,5.1 C15.1,5.1,15.1,5.1,15.1,5.1z M15.1,5.2C15.1,5.2,15.1,5.2,15.1,5.2C15.1,5.2,15.1,5.2,15.1,5.2C15.1,5.2,15.1,5.2,15.1,5.2 C15.1,5.2,15.1,5.2,15.1,5.2z M15.1,5.9C15.1,5.9,15.1,5.9,15.1,5.9C15.1,5.9,15.1,5.9,15.1,5.9C15.1,5.9,15.1,5.9,15.1,5.9 C15.1,5.9,15.1,5.9,15.1,5.9C15.1,5.9,15.1,5.9,15.1,5.9C15.1,5.9,15.1,5.9,15.1,5.9z M15.1,6.2C15.1,6.2,15,6.2,15.1,6.2 C15,6.3,15.1,6.3,15.1,6.2C15.1,6.3,15.1,6.3,15.1,6.2C15.1,6.2,15.1,6.2,15.1,6.2z M15,5.7C15,5.7,15,5.7,15,5.7 C15.1,5.7,15.1,5.7,15,5.7C15.1,5.7,15.1,5.7,15,5.7C15,5.7,15,5.7,15,5.7z M15,5.6C15,5.6,15,5.6,15,5.6C15,5.6,15,5.6,15,5.6 C15,5.6,15,5.6,15,5.6C15,5.6,15,5.6,15,5.6z M15,5.4C15,5.4,15,5.4,15,5.4C15,5.5,15,5.5,15,5.4C15,5.5,15,5.5,15,5.4 C15,5.4,15,5.4,15,5.4z M15,5.2C15,5.2,15,5.2,15,5.2C15,5.2,15,5.2,15,5.2C15,5.2,15,5.2,15,5.2C15,5.2,15,5.2,15,5.2z M15,5.2 C15,5.2,15,5.2,15,5.2C15,5.2,15,5.2,15,5.2C15,5.2,15,5.2,15,5.2C15,5.2,15,5.2,15,5.2z M15,5.3C15,5.3,15,5.3,15,5.3 C15,5.3,15,5.3,15,5.3C15,5.3,15,5.3,15,5.3C15,5.3,15,5.3,15,5.3z M15,5.9C15,5.9,15,5.9,15,5.9C15,5.9,15,5.9,15,5.9 C15,5.9,15,5.9,15,5.9C15,5.9,15,5.9,15,5.9z M14.9,5.8C14.9,5.8,14.9,5.8,14.9,5.8C14.9,5.8,15,5.8,14.9,5.8 C15,5.7,14.9,5.7,14.9,5.8C14.9,5.7,14.9,5.7,14.9,5.8z M14.9,5.2L14.9,5.2C14.9,5.2,14.9,5.2,14.9,5.2C14.9,5.2,14.9,5.2,14.9,5.2 C14.9,5.2,14.9,5.2,14.9,5.2z M14.9,5.6C14.9,5.6,14.9,5.6,14.9,5.6C14.9,5.6,14.9,5.6,14.9,5.6C14.9,5.6,14.9,5.6,14.9,5.6 C14.9,5.6,14.9,5.6,14.9,5.6z M14.9,5.5C14.9,5.5,14.9,5.5,14.9,5.5C14.9,5.5,14.9,5.5,14.9,5.5C14.9,5.5,14.9,5.5,14.9,5.5 C14.9,5.5,14.9,5.5,14.9,5.5z M14.9,5.3C14.9,5.3,14.9,5.3,14.9,5.3C14.9,5.3,14.9,5.3,14.9,5.3C14.9,5.3,14.9,5.3,14.9,5.3 C14.9,5.3,14.9,5.3,14.9,5.3z M14.9,5.4C14.9,5.4,14.9,5.4,14.9,5.4C14.9,5.4,14.9,5.4,14.9,5.4C14.9,5.4,14.9,5.4,14.9,5.4 C14.9,5.4,14.9,5.4,14.9,5.4z M14.9,6.1C14.9,6.1,14.9,6.1,14.9,6.1C14.9,6.1,14.9,6.1,14.9,6.1C14.9,6.1,14.9,6.1,14.9,6.1 C14.9,6.1,14.9,6.1,14.9,6.1z M14.9,6.4C14.9,6.4,14.9,6.4,14.9,6.4C14.9,6.4,14.9,6.4,14.9,6.4C14.9,6.4,14.9,6.4,14.9,6.4 C14.9,6.4,14.9,6.4,14.9,6.4z M14.9,5.9C14.9,5.9,14.9,5.9,14.9,5.9C14.9,5.9,14.9,5.9,14.9,5.9C14.9,5.9,14.9,5.9,14.9,5.9 C14.9,5.9,14.9,5.9,14.9,5.9z M14.8,5.8C14.8,5.8,14.8,5.8,14.8,5.8C14.9,5.8,14.9,5.8,14.8,5.8C14.9,5.8,14.9,5.8,14.8,5.8 C14.8,5.8,14.8,5.8,14.8,5.8z M14.8,5.6C14.8,5.6,14.8,5.6,14.8,5.6C14.8,5.6,14.8,5.6,14.8,5.6C14.8,5.6,14.8,5.6,14.8,5.6 C14.8,5.6,14.8,5.6,14.8,5.6z M14.8,5.4C14.8,5.4,14.8,5.4,14.8,5.4C14.8,5.4,14.8,5.4,14.8,5.4C14.8,5.4,14.8,5.4,14.8,5.4 C14.8,5.4,14.8,5.4,14.8,5.4z M14.8,5.5C14.8,5.5,14.8,5.5,14.8,5.5C14.8,5.5,14.8,5.5,14.8,5.5C14.8,5.5,14.8,5.5,14.8,5.5 C14.8,5.5,14.8,5.5,14.8,5.5z M14.8,6.7C14.8,6.7,14.8,6.7,14.8,6.7C14.8,6.7,14.8,6.7,14.8,6.7C14.8,6.7,14.8,6.7,14.8,6.7 C14.8,6.7,14.8,6.7,14.8,6.7z M14.8,6.1C14.8,6.1,14.8,6.1,14.8,6.1C14.8,6.1,14.8,6.1,14.8,6.1C14.8,6.1,14.8,6.1,14.8,6.1 C14.8,6.1,14.8,6.1,14.8,6.1z M14.8,6.4C14.8,6.4,14.8,6.4,14.8,6.4C14.8,6.4,14.8,6.4,14.8,6.4C14.8,6.4,14.8,6.4,14.8,6.4 C14.8,6.4,14.8,6.4,14.8,6.4C14.8,6.4,14.8,6.4,14.8,6.4C14.8,6.4,14.8,6.4,14.8,6.4z M14.8,7C14.8,7,14.8,7,14.8,7 C14.8,7,14.8,7,14.8,7C14.8,7,14.8,7,14.8,7C14.8,7,14.8,7,14.8,7z M14.8,5.5C14.8,5.5,14.8,5.5,14.8,5.5 C14.8,5.5,14.8,5.5,14.8,5.5C14.8,5.5,14.8,5.5,14.8,5.5C14.8,5.5,14.8,5.5,14.8,5.5z M14.8,5.9C14.8,5.9,14.8,5.9,14.8,5.9 C14.8,5.9,14.8,5.9,14.8,5.9C14.8,5.9,14.8,5.9,14.8,5.9C14.8,5.9,14.8,5.9,14.8,5.9z M14.8,5.8C14.8,5.8,14.8,5.8,14.8,5.8 C14.8,5.8,14.8,5.8,14.8,5.8C14.8,5.8,14.8,5.8,14.8,5.8C14.8,5.8,14.8,5.8,14.8,5.8z M14.8,5.6C14.8,5.6,14.8,5.6,14.8,5.6 C14.8,5.6,14.8,5.6,14.8,5.6C14.8,5.6,14.8,5.6,14.8,5.6C14.8,5.6,14.8,5.6,14.8,5.6z M14.8,5.7C14.8,5.7,14.8,5.7,14.8,5.7 C14.8,5.7,14.8,5.7,14.8,5.7C14.8,5.7,14.8,5.7,14.8,5.7C14.8,5.7,14.8,5.7,14.8,5.7z M14.8,6.2C14.8,6.3,14.8,6.3,14.8,6.2 C14.8,6.3,14.8,6.3,14.8,6.2C14.8,6.2,14.8,6.2,14.8,6.2C14.8,6.2,14.8,6.2,14.8,6.2z M14.8,7.2C14.8,7.2,14.8,7.2,14.8,7.2 L14.8,7.2C14.8,7.2,14.8,7.2,14.8,7.2C14.8,7.2,14.8,7.2,14.8,7.2z M14.7,6.7C14.7,6.7,14.7,6.7,14.7,6.7 C14.8,6.7,14.8,6.7,14.7,6.7C14.8,6.7,14.8,6.7,14.7,6.7C14.7,6.7,14.7,6.7,14.7,6.7z M14.7,6.1C14.7,6.1,14.7,6.1,14.7,6.1 C14.7,6.1,14.7,6.1,14.7,6.1C14.7,6.1,14.7,6.1,14.7,6.1C14.7,6.1,14.7,6.1,14.7,6.1z M14.7,6.4C14.7,6.4,14.7,6.4,14.7,6.4 C14.7,6.4,14.7,6.4,14.7,6.4C14.7,6.4,14.7,6.4,14.7,6.4C14.7,6.4,14.7,6.4,14.7,6.4z M14.7,6C14.7,6,14.7,6,14.7,6 C14.7,6,14.7,6,14.7,6C14.7,6,14.7,5.9,14.7,6C14.7,5.9,14.7,6,14.7,6z M14.7,5.7C14.7,5.7,14.7,5.7,14.7,5.7 C14.7,5.7,14.7,5.7,14.7,5.7C14.7,5.7,14.7,5.7,14.7,5.7C14.7,5.7,14.7,5.7,14.7,5.7z M14.7,5.8C14.7,5.8,14.7,5.8,14.7,5.8 C14.7,5.8,14.7,5.8,14.7,5.8C14.7,5.8,14.7,5.8,14.7,5.8C14.7,5.8,14.7,5.8,14.7,5.8z M14.7,6.3C14.7,6.3,14.7,6.3,14.7,6.3 C14.7,6.3,14.7,6.3,14.7,6.3C14.7,6.2,14.7,6.2,14.7,6.3C14.7,6.2,14.7,6.2,14.7,6.3z M14.7,6.7C14.7,6.7,14.7,6.7,14.7,6.7 C14.7,6.7,14.7,6.7,14.7,6.7C14.7,6.7,14.7,6.7,14.7,6.7C14.7,6.7,14.7,6.7,14.7,6.7z M14.7,6.8C14.7,6.8,14.7,6.8,14.7,6.8 C14.7,6.8,14.7,6.8,14.7,6.8C14.7,6.8,14.7,6.8,14.7,6.8C14.7,6.8,14.7,6.8,14.7,6.8z M14.7,6.1C14.7,6.1,14.7,6.1,14.7,6.1 C14.7,6.1,14.7,6.1,14.7,6.1C14.7,6.1,14.7,6.1,14.7,6.1C14.7,6.1,14.7,6.1,14.7,6.1z M14.7,5.7C14.7,5.7,14.7,5.7,14.7,5.7 C14.7,5.7,14.7,5.7,14.7,5.7L14.7,5.7C14.7,5.7,14.7,5.7,14.7,5.7z M14.7,6.4C14.7,6.4,14.7,6.4,14.7,6.4 C14.7,6.4,14.7,6.4,14.7,6.4C14.7,6.4,14.7,6.4,14.7,6.4C14.7,6.4,14.7,6.4,14.7,6.4z M14.7,5.8C14.7,5.8,14.7,5.8,14.7,5.8 C14.7,5.8,14.7,5.8,14.7,5.8C14.7,5.8,14.7,5.8,14.7,5.8C14.7,5.8,14.7,5.8,14.7,5.8z M14.7,6C14.7,6,14.7,6,14.7,6 C14.7,6,14.7,6,14.7,6C14.7,6,14.7,6,14.7,6C14.7,6,14.7,6,14.7,6z M14.6,6.5C14.6,6.5,14.6,6.5,14.6,6.5 C14.6,6.5,14.6,6.5,14.6,6.5C14.6,6.5,14.7,6.5,14.6,6.5C14.7,6.5,14.6,6.5,14.6,6.5z M14.6,6.3C14.6,6.3,14.6,6.3,14.6,6.3 C14.6,6.3,14.6,6.3,14.6,6.3C14.6,6.3,14.6,6.3,14.6,6.3C14.6,6.3,14.6,6.3,14.6,6.3z M14.6,6.7C14.6,6.7,14.6,6.7,14.6,6.7 C14.6,6.7,14.6,6.7,14.6,6.7C14.6,6.7,14.6,6.7,14.6,6.7C14.6,6.7,14.6,6.7,14.6,6.7z M14.6,6.1C14.6,6.1,14.6,6.1,14.6,6.1 C14.6,6.1,14.6,6.1,14.6,6.1C14.6,6.1,14.6,6.1,14.6,6.1C14.6,6.1,14.6,6.1,14.6,6.1z M14.6,6C14.6,6,14.6,6,14.6,6 C14.6,6,14.6,6,14.6,6C14.6,6,14.6,6,14.6,6C14.6,6,14.6,6,14.6,6z M14.6,6.4C14.6,6.4,14.6,6.4,14.6,6.4 C14.6,6.4,14.6,6.4,14.6,6.4C14.6,6.4,14.6,6.4,14.6,6.4C14.6,6.4,14.6,6.4,14.6,6.4z M14.6,6.8C14.6,6.8,14.6,6.8,14.6,6.8 C14.6,6.8,14.6,6.8,14.6,6.8C14.6,6.8,14.6,6.8,14.6,6.8C14.6,6.8,14.6,6.8,14.6,6.8z M14.6,6.5C14.6,6.5,14.6,6.5,14.6,6.5 C14.6,6.5,14.6,6.5,14.6,6.5C14.6,6.5,14.6,6.5,14.6,6.5C14.6,6.5,14.6,6.5,14.6,6.5z M14.6,6.7C14.6,6.7,14.6,6.7,14.6,6.7 L14.6,6.7C14.6,6.7,14.6,6.7,14.6,6.7C14.6,6.7,14.6,6.7,14.6,6.7z M14.6,6.3C14.6,6.3,14.6,6.3,14.6,6.3 C14.6,6.3,14.6,6.3,14.6,6.3C14.6,6.3,14.6,6.3,14.6,6.3C14.6,6.3,14.6,6.3,14.6,6.3z M14.6,6.1L14.6,6.1L14.6,6.1 C14.6,6.1,14.6,6.1,14.6,6.1C14.6,6.1,14.6,6.1,14.6,6.1z M14.6,6.4C14.6,6.4,14.6,6.4,14.6,6.4C14.6,6.4,14.6,6.4,14.6,6.4 C14.6,6.4,14.6,6.4,14.6,6.4L14.6,6.4z M14.6,6.5C14.6,6.5,14.6,6.5,14.6,6.5C14.6,6.5,14.6,6.5,14.6,6.5 C14.6,6.5,14.6,6.5,14.6,6.5C14.6,6.5,14.6,6.5,14.6,6.5z M14.6,6.3C14.6,6.3,14.6,6.3,14.6,6.3C14.6,6.3,14.6,6.3,14.6,6.3 C14.6,6.3,14.6,6.3,14.6,6.3C14.6,6.3,14.6,6.3,14.6,6.3z M5.4,17.8L5.4,17.8L5.4,6.6c0,0,0-0.1,0-0.1l0.5-0.2c0,0,0,0,0-0.1V3.5 c0,0,0-0.1,0.1-0.1h0.3c0,0,0.1,0,0.1-0.1V1.7c0,0,0-0.1,0.1-0.1h0.3c0.1,0,0-0.1,0-0.3V0.1c0,0,0-0.1,0.1-0.1c0,0,0.1,0,0.1,0.1 v1.5c0,0,0,0.1,0.1,0.1c0.2,0,0.3,0.1,0.3,0.3v1.4c0,0,0,0.1,0.1,0.1h0.3c0,0,0.1,0,0.1,0.1v1.9c0,0.1,0,0.1,0.1,0.1l0.4-0.2 c0,0,0.1,0,0.1,0.1l0,0.9c0,0,0,0-0.1,0c-0.6,0-1.1,0.5-1.1,1.2c0,0.7,0.5,1.2,1.1,1.2h0c0,0,0.1,0,0.1,0.1l0,9.6 c0,0.2-0.1,0.3-0.2,0.2c-0.1-0.1-0.3-0.2-0.4-0.2C7.4,18.1,7,18,6.7,17.9c-0.1,0-0.2,0-0.3-0.1c-0.1,0-0.2,0-0.3,0 c-0.1,0-0.2,0-0.3,0l-0.1,0l-0.1,0l-0.1,0L5.4,17.8z M7.9,14.3h0.3v-2.1H7.9V14.3z M7.9,16.7h0.3v-2.1H7.9V16.7z M7.5,13h0.3v-2.1 H7.5V13z M7.3,13.4v2.1h0.3v-2.1H7.3z M7.1,11.8h0.3V9.7H7.1V11.8z M7,8.4H6.7v2.1H7V8.4z M6.6,8.1h0.3V6H6.6V8.1z M6.6,12.8h0.3 v-2.1H6.6V12.8z M6.2,9.2h0.3V7.1H6.2V9.2z M6.2,11.6h0.3V9.4H6.2V11.6z M6,14v2.1h0.3V14H6z M5.7,8.6H6V6.5H5.7V8.6z M23.3,18 c0,0,0,0.1-0.1,0.3c-0.1,0.2-0.1,0.5-0.3,0.9c-0.1,0.4-0.4,0.8-0.7,1.2c-0.2,0.2-0.4,0.4-0.7,0.6c-0.3,0.2-0.6,0.3-1,0.4 c-0.4,0.1-0.9,0.1-1.4,0c-0.4,0.4-0.8,0.8-1.2,1.1c-0.7,0.5-1.6,0.9-2.5,1.1c-0.4,0.1-0.9,0.2-1.4,0.2c-0.5,0-0.9,0-1.4,0 c-0.5-0.1-0.9-0.2-1.3-0.4c-0.4-0.2-0.8-0.4-1.2-0.7c-0.5-0.4-1-0.8-1.5-1.2c-0.2,0.2-0.5,0.4-0.7,0.5c-0.4,0.2-0.9,0.5-1.4,0.6 c-0.5,0.1-1.1,0.1-1.6-0.1c-0.2-0.1-0.5-0.2-0.7-0.3c-0.1,0-0.1-0.1-0.1-0.1L4,22l0,0l-0.1-0.1l-0.1-0.1c-0.1-0.1-0.2-0.2-0.4-0.2 c-0.1-0.1-0.2-0.1-0.3-0.2c-0.1-0.1-0.2-0.1-0.4-0.1c-0.1,0.1-0.2,0.2-0.3,0.4c-0.4,0.4-0.6,0.8-0.8,1.2c-0.2,0.3-0.4,0.6-0.5,0.8 C1,23.9,0.9,24,0.9,24l-0.1,0c0,0,0-0.1,0.1-0.3c0.1-0.2,0.2-0.5,0.4-0.9C1.5,22.4,1.7,22,2,21.6c-0.3,0.2-0.5,0.6-0.7,0.9 C1.1,22.8,1,23.1,1,23.3c-0.1,0.2-0.1,0.3-0.1,0.3l-0.1,0c0,0,0-0.1,0-0.3c0-0.2,0.1-0.5,0.2-0.9C1,22.2,1.1,22,1.2,21.8 c0.1-0.2,0.2-0.4,0.4-0.6c0.2-0.2,0.4-0.4,0.7-0.5c0.1,0,0.3,0,0.4-0.1c0.2-0.2,0.4-0.4,0.7-0.6c0.3-0.2,0.7-0.4,1.1-0.6 c0.4-0.2,0.9-0.2,1.4-0.2c0.2,0,0.5,0.1,0.7,0.1l0.1,0l0,0l0,0l0,0l0,0L7,19.4c0,0,0.1,0,0.2,0.1l0.2,0.1c0.2,0.1,0.4,0.2,0.6,0.3 c0.2,0.1,0.4,0.2,0.6,0.4c0.3-0.2,0.5-0.4,0.8-0.7c0.3-0.3,0.7-0.6,1-0.8c0.4-0.2,0.7-0.5,1.2-0.6c0.4-0.2,0.9-0.2,1.3-0.2 c0.4,0.1,0.9,0.2,1.2,0.4c0.7,0.4,1.5,0.9,2.2,1.2c0.7,0.4,1.4,0.7,2.1,0.9c0.1,0,0.2,0.1,0.3,0.1c0.2-0.1,0.3-0.3,0.5-0.5 c0.3-0.3,0.5-0.6,0.7-0.8c0.2-0.3,0.4-0.6,0.6-0.8c0.2-0.3,0.3-0.6,0.5-0.8c0.1-0.3,0.3-0.5,0.4-0.8c0.2-0.5,0.4-0.9,0.6-1.3 c0.1-0.4,0.3-0.7,0.3-0.9c0.1-0.2,0.1-0.3,0.1-0.3l0.1,0c0,0-0.1,0.5-0.3,1.2c-0.1,0.4-0.2,0.9-0.4,1.4c-0.2,0.5-0.4,1.1-0.8,1.7 c-0.3,0.6-0.7,1.3-1.2,1.9c0,0.1-0.1,0.1-0.2,0.2c0.3,0,0.6,0.1,0.9,0c0.3,0,0.6-0.1,0.9-0.3c0.3-0.1,0.5-0.3,0.6-0.5 c0.4-0.4,0.6-0.8,0.8-1.1c0.2-0.3,0.3-0.6,0.4-0.8C23.1,18,23.2,17.9,23.3,18L23.3,18z M7.4,21.2c0.2-0.1,0.3-0.2,0.4-0.3 c-0.3-0.2-0.6-0.4-0.8-0.5c-0.2-0.1-0.4-0.2-0.6-0.2C6.2,20,6,19.9,5.8,19.9c-0.4-0.1-0.8,0-1.1,0.1c-0.3,0.1-0.7,0.3-1,0.5 c-0.1,0.1-0.2,0.2-0.3,0.3c0.3,0.1,0.5,0.2,0.8,0.3c0.2,0.1,0.3,0.2,0.5,0.3c0.2,0.1,0.3,0.2,0.5,0.2c0.3,0.1,0.7,0.1,1.1,0.1 C6.7,21.5,7,21.4,7.4,21.2z M18.1,21.2c-0.7-0.2-1.5-0.5-2.2-0.9c-0.4-0.2-0.8-0.4-1.1-0.6c-0.2-0.1-0.4-0.2-0.6-0.3 c-0.2-0.1-0.4-0.2-0.6-0.3l-0.1-0.1l0,0l0,0l-0.1,0c0,0-0.1,0-0.1,0c0,0-0.1,0-0.1,0c-0.2,0-0.3-0.1-0.5-0.1c-0.3,0-0.6,0-0.9,0.2 c-0.6,0.3-1.2,0.8-1.9,1.3c-0.2,0.2-0.4,0.4-0.6,0.5C9.4,21,9.5,21,9.6,21.1c0.3,0.3,0.7,0.5,1,0.8c0.3,0.2,0.7,0.4,1,0.6 c0.4,0.1,0.7,0.2,1.1,0.3c0.4,0.1,0.8,0.1,1.2,0.1c0.2,0,0.4,0,0.6-0.1c0.1,0,0.2,0,0.3,0c0.1,0,0.2,0,0.3-0.1 c0.2,0,0.4-0.1,0.6-0.2c0.2-0.1,0.4-0.1,0.6-0.2c0.4-0.1,0.7-0.3,1-0.5C17.7,21.6,17.9,21.4,18.1,21.2z"></path> </svg> 